<svg xmlns="http://www.w3.org/2000/svg" viewBox="0 0 750 750"  xmlns:v="https://vecta.io/nano"><path d="M-.47-.07h750v750h-750z" fill="#010101"/><path d="M-.47-54.07v36m-54 18h36m-36 750h36m18 54v-36m750-822v36m54 18h-36m36 750h-36m-18 54v-36" fill="none" stroke="#000" stroke-width=".3"/><linearGradient id="A" gradientUnits="userSpaceOnUse" x1="157.09" y1="562.148" x2="513.978" y2="562.148"><stop offset="0" stop-color="#d64b27"/><stop offset=".126" stop-color="#d8572a"/><stop offset=".363" stop-color="#df7435"/><stop offset=".683" stop-color="#ec9e4e"/><stop offset="1" stop-color="#fed272"/></linearGradient><path d="M513.98 552.52a188.52 188.52 0 0 1-18.14 30.43c-7.04 9.6-14.95 18.5-23.65 26.57-13.92 12.96-29.8 23.82-47.17 32.09-24.39 11.62-51.68 18.11-80.49 18.11-11.27 0-22.32-.99-33.05-2.9-28.01-4.98-53.86-16.18-76.08-32.14a187.58 187.58 0 0 1-38.72-37.19c-24.82-31.78-39.58-71.77-39.58-115.19 0-2.59.06-5.18.17-7.74a199.51 199.51 0 0 0 59.27 48.56c22.01 33.25 53.75 59.48 91.16 74.67.29.11.59.25.88.34 13.38 5.36 27.48 9.31 42.11 11.65a199.77 199.77 0 0 0 31.72 2.53 197.46 197.46 0 0 0 16.37-.68c15.74-1.26 30.94-4.39 45.43-9.14a194.32 194.32 0 0 0 30.94-13.1c14.01-7.42 27.04-16.45 38.83-26.87z" fill="url(#A)"/><linearGradient id="B" gradientUnits="userSpaceOnUse" x1="395.257" y1="127.302" x2="457.5" y2="127.302"><stop offset="0" stop-color="#d64b27"/><stop offset=".206" stop-color="#d64e28"/><stop offset=".36" stop-color="#d85629"/><stop offset=".497" stop-color="#db642d"/><stop offset=".624" stop-color="#e07535"/><stop offset=".745" stop-color="#e68a41"/><stop offset=".86" stop-color="#eea553"/><stop offset=".969" stop-color="#fac66a"/><stop offset="1" stop-color="#fed272"/></linearGradient><path d="M457.5 90.65v.02c-9.45 12.12-16.02 26.56-18.71 42.34-.42 2.36-.72 4.75-.94 7.17-.29 2.97-.43 5.98-.43 9 0 4.04.25 8.03.74 11.95.12 1.08.28 2.14.46 3.22a77.55 77.55 0 0 0-2.99-2.14c-4.25-2.94-8.71-5.6-13.38-7.92-2.93-1.46-5.95-2.81-9.05-3.99a107.76 107.76 0 0 0-17.94-5.27 143.67 143.67 0 0 1 62.03-54.75c.07.1.13.24.21.37z" fill="url(#B)"/><linearGradient id="C" gradientUnits="userSpaceOnUse" x1="290.794" y1="129.391" x2="352.251" y2="129.391"><stop offset="0" stop-color="#fed272"/><stop offset=".031" stop-color="#fac66a"/><stop offset=".14" stop-color="#eea553"/><stop offset=".256" stop-color="#e68a41"/><stop offset=".376" stop-color="#e07535"/><stop offset=".503" stop-color="#db642d"/><stop offset=".64" stop-color="#d85629"/><stop offset=".794" stop-color="#d64e28"/><stop offset="1" stop-color="#d64b27"/></linearGradient><path d="M352.25 144.97c-9.29 1.83-18.14 4.86-26.42 8.89-8.02 3.9-15.46 8.76-22.21 14.41 2.13-7.89 3.25-16.2 3.25-24.77 0-1.46-.03-2.93-.09-4.38a101.08 101.08 0 0 0-1.09-10.79c-2.22-13.83-7.4-26.67-14.89-37.83 24.8 11.51 45.77 29.92 60.39 52.75v.02c.37.57.72 1.13 1.06 1.7z" fill="url(#C)"/><linearGradient id="D" gradientUnits="userSpaceOnUse" x1="216.524" y1="489.307" x2="531.968" y2="489.307"><stop offset="0" stop-color="#d64b27"/><stop offset=".276" stop-color="#d64e27"/><stop offset=".43" stop-color="#d85529"/><stop offset=".554" stop-color="#da602c"/><stop offset=".662" stop-color="#de6f33"/><stop offset=".76" stop-color="#e3823c"/><stop offset=".851" stop-color="#ea984b"/><stop offset=".934" stop-color="#f3b55e"/><stop offset="1" stop-color="#fed272"/></linearGradient><path d="M531.97 472.3a190.73 190.73 0 0 1-2.15 28.55 186.96 186.96 0 0 1-15.84 51.68c-11.8 10.41-24.81 19.45-38.84 26.86-9.86 5.21-20.2 9.62-30.94 13.11-14.49 4.74-29.7 7.87-45.43 9.14-5.4.45-10.86.66-16.38.66-10.81 0-21.39-.86-31.73-2.51-14.62-2.35-28.73-6.3-42.11-11.65-.29-.09-.57-.23-.88-.34-37.4-15.19-69.15-41.42-91.16-74.68 27.97 15.03 59.97 23.56 93.93 23.56 17.45 0 34.42-2.26 50.56-6.5 1.6-.39 3.18-.84 4.74-1.31a169.13 169.13 0 0 0 8.12-2.53c2.75-.92 5.46-1.9 8.17-2.96.92-.34 1.83-.68 2.73-1.08 9.12-3.65 17.88-7.99 26.27-12.91 8.13-4.78 15.85-10.11 23.18-15.93 35.7-28.44 61.37-68.9 70.92-115.22l.39-1.92.95 1.62c16.21 27.69 25.5 59.94 25.5 94.36z" fill="url(#D)"/><linearGradient id="E" gradientUnits="userSpaceOnUse" x1="440.521" y1="183.187" x2="495.273" y2="128.435"><stop offset="0" stop-color="#f6d6ba"/><stop offset=".235" stop-color="#f6d8be"/><stop offset=".492" stop-color="#f8e0ca"/><stop offset=".758" stop-color="#fbecdf"/><stop offset="1" stop-color="#fff"/></linearGradient><path d="M481.53 185.15c0 12.22-1.11 24.2-3.24 35.81-3.39-11.47-8.63-22.15-15.35-31.69-6.74-9.56-14.95-17.97-24.32-24.93-.19-1.08-.34-2.14-.46-3.22-.49-3.92-.74-7.91-.74-11.95 0-3.02.14-6.03.43-9 .22-2.42.52-4.81.94-7.17a94.7 94.7 0 0 1 18.71-42.34 196.83 196.83 0 0 1 6.98 14.12c3.93 8.8 7.25 17.96 9.87 27.39 1.5 5.43 2.79 10.94 3.82 16.55a198.74 198.74 0 0 1 3.36 36.43z" fill="url(#E)"/><linearGradient id="F" gradientUnits="userSpaceOnUse" x1="373.608" y1="326.964" x2="373.608" y2="142.871"><stop offset="0" stop-color="#d64b27"/><stop offset=".206" stop-color="#d64e28"/><stop offset=".36" stop-color="#d85629"/><stop offset=".497" stop-color="#db642d"/><stop offset=".624" stop-color="#e07535"/><stop offset=".745" stop-color="#e68a41"/><stop offset=".86" stop-color="#eea553"/><stop offset=".969" stop-color="#fac66a"/><stop offset="1" stop-color="#fed272"/></linearGradient><path d="M478.29 220.96l-.12.62-4.69 2.28c-.05.01-.09.03-.14.06l-2.74 1.4c-28.9 14.98-53.98 36.35-73.39 62.18-1.02 1.33-1.99 2.68-2.96 4.02l-.92 1.29-1.39 1.99v.02a214.47 214.47 0 0 0-18.27 32.14c-4.99-10.87-10.85-21.26-17.5-31.07v-.02l-2.05-2.96c-1.9-2.73-3.87-5.38-5.9-8.01-6.23-8.03-12.99-15.63-20.25-22.72-2.53-2.47-5.1-4.86-7.75-7.18a216.41 216.41 0 0 0-34.76-25.08c-5.35-3.1-10.85-5.98-16.48-8.62-.02-.11-.03-.23-.06-.34.05-.17.11-.34.15-.51a29.94 29.94 0 0 1 .39-1.25c6.34-20.12 18.34-37.72 34.16-50.93a108.46 108.46 0 0 1 22.21-14.41c8.28-4.04 17.13-7.06 26.42-8.89 1.22-.26 2.44-.48 3.67-.66 5.76-.94 11.67-1.43 17.7-1.43 7.4 0 14.64.72 21.63 2.14h.02a107.48 107.48 0 0 1 17.94 5.27c3.1 1.19 6.12 2.53 9.05 3.99a109.2 109.2 0 0 1 13.38 7.92 77.55 77.55 0 0 1 2.99 2.14 109.61 109.61 0 0 1 24.32 24.93c6.71 9.54 11.95 20.22 15.34 31.69z" fill="url(#F)"/><linearGradient id="G" gradientUnits="userSpaceOnUse" x1="373.582" y1="361.23" x2="373.582" y2="221.303"><stop offset="0" stop-color="#fff"/><stop offset=".242" stop-color="#fbecdf"/><stop offset=".508" stop-color="#f8e0ca"/><stop offset=".765" stop-color="#f6d8be"/><stop offset="1" stop-color="#f6d6ba"/></linearGradient><path d="M478.17 221.57l-1.02 5.05-.4 1.88-.07.32c-6.79 30.08-20.43 57.53-39.2 80.67-4.79 5.89-9.88 11.49-15.3 16.77-.29.29-.56.57-.84.83-6.32 6.12-13.04 11.81-20.11 17.04-5.44 4.02-11.1 7.77-16.93 11.2-3.5 2.08-7.06 4.02-10.68 5.89h-.02c-3.61-1.85-7.15-3.79-10.61-5.84-5.49-3.25-10.83-6.73-15.94-10.49-7.42-5.41-14.44-11.29-21.01-17.67-5.78-5.55-11.2-11.47-16.29-17.7a.54.54 0 0 0-.07-.13 200.14 200.14 0 0 1-13.2-18.32c-10.4-16.34-18.46-34.3-23.74-53.42-1.47-5.37-2.73-10.83-3.75-16.37 5.62 2.64 11.11 5.51 16.47 8.62 12.43 7.2 24.06 15.6 34.76 25.07 2.66 2.33 5.23 4.72 7.76 7.18 7.25 7.09 14.02 14.71 20.25 22.73 2.03 2.64 4 5.28 5.91 8.01l2.05 2.96v.02c6.64 9.82 12.5 20.2 17.49 31.08 5.17-11.28 11.31-22.01 18.28-32.14v-.02l1.38-1.99.92-1.29 2.96-4.02c19.41-25.84 44.49-47.21 73.38-62.18l2.75-1.4c.05-.04.09-.05.14-.07l4.68-2.27z" fill="url(#G)"/><linearGradient id="H" gradientUnits="userSpaceOnUse" x1="411.037" y1="409.441" x2="505.537" y2="409.441"><stop offset="0" stop-color="#d64b27"/><stop offset=".206" stop-color="#d64e28"/><stop offset=".36" stop-color="#d85629"/><stop offset=".497" stop-color="#db642d"/><stop offset=".624" stop-color="#e07535"/><stop offset=".745" stop-color="#e68a41"/><stop offset=".86" stop-color="#eea553"/><stop offset=".969" stop-color="#fac66a"/><stop offset="1" stop-color="#fed272"/></linearGradient><path d="M505.54 376.3v.02l-.39 1.92c-9.55 46.33-35.23 86.78-70.92 115.22-7.33 5.82-15.05 11.15-23.18 15.93a186.46 186.46 0 0 0 11.42-20.52c11.74-24.53 18.3-52 18.3-81 0-9.05-.65-17.96-1.87-26.66-1.74-12.35-4.7-24.29-8.73-35.73-1.98-5.62-4.22-11.11-6.68-16.48h-.02c-.41-.92-.84-1.8-1.27-2.71 5.42-5.28 10.5-10.88 15.3-16.77 6.81 3.9 13.34 8.22 19.59 12.91 14.96 11.24 28.19 24.69 39.2 39.84a190.88 190.88 0 0 1 9.25 14.03z" fill="url(#H)"/><linearGradient id="I" gradientUnits="userSpaceOnUse" x1="375.126" y1="488.858" x2="375.126" y2="309.536"><stop offset="0" stop-color="#fff"/><stop offset=".242" stop-color="#fbecdf"/><stop offset=".508" stop-color="#f8e0ca"/><stop offset=".765" stop-color="#f6d8be"/><stop offset="1" stop-color="#f6d6ba"/></linearGradient><path d="M440.75 407.86c0 29-6.55 56.47-18.3 81-8.92-3.82-17.49-8.31-25.6-13.45-3.39-2.14-6.72-4.36-9.97-6.73a187.19 187.19 0 0 1-31.66-28.91c-3.57-4.09-6.97-8.39-10.18-12.8a186.23 186.23 0 0 1-25.01-47.56 186.97 186.97 0 0 1-5.46-18.55c-1.49-6.32-2.69-12.77-3.54-19.32-.11-.79-.2-1.58-.29-2.35-.81-7.13-1.26-14.38-1.26-21.76a167.02 167.02 0 0 1 .16-7.45 3.29 3.29 0 0 0 .09-.43c5.08 6.23 10.5 12.16 16.29 17.7 6.57 6.37 13.59 12.26 21.01 17.67 5.12 3.75 10.45 7.24 15.94 10.49a201.48 201.48 0 0 0 10.61 5.84h.02c3.63-1.87 7.18-3.81 10.68-5.89a192.84 192.84 0 0 0 16.93-11.2c7.07-5.22 13.79-10.92 20.11-17.04.29-.25.56-.54.84-.83l1.27 2.71h.02c2.46 5.37 4.7 10.86 6.68 16.48a186.7 186.7 0 0 1 8.73 35.73c1.25 8.7 1.89 17.6 1.89 26.65z" fill="url(#I)"/><linearGradient id="J" gradientUnits="userSpaceOnUse" x1="252.374" y1="127.773" x2="306.632" y2="182.031"><stop offset="0" stop-color="#fff"/><stop offset=".242" stop-color="#fbecdf"/><stop offset=".508" stop-color="#f8e0ca"/><stop offset=".765" stop-color="#f6d8be"/><stop offset="1" stop-color="#f6d6ba"/></linearGradient><path d="M306.87 143.5c0 8.57-1.13 16.88-3.25 24.77-15.81 13.21-27.82 30.81-34.16 50.93-.25.2-.49.4-.75.59a200.75 200.75 0 0 1-3.01-34.64c0-14.4 1.53-28.45 4.45-41.97a196.46 196.46 0 0 1 12.93-39.2c2.13-4.72 4.44-9.34 6.92-13.84.26.11.52.23.79.37 7.49 11.16 12.67 24 14.89 37.83a95.92 95.92 0 0 1 1.09 10.79 90.43 90.43 0 0 1 .1 4.37z" fill="url(#J)"/><linearGradient id="K" gradientUnits="userSpaceOnUse" x1="302.879" y1="418.148" x2="422.463" y2="418.148"><stop offset="0" stop-color="#d64b27"/><stop offset=".206" stop-color="#d64e28"/><stop offset=".36" stop-color="#d85629"/><stop offset=".497" stop-color="#db642d"/><stop offset=".624" stop-color="#e07535"/><stop offset=".745" stop-color="#e68a41"/><stop offset=".86" stop-color="#eea553"/><stop offset=".969" stop-color="#fac66a"/><stop offset="1" stop-color="#fed272"/></linearGradient><path d="M422.46 488.86a186.46 186.46 0 0 1-11.42 20.52c-8.39 4.93-17.16 9.26-26.27 12.92-.91.39-1.82.74-2.74 1.08-2.7 1.05-5.41 2.03-8.17 2.96-2.33-2.13-4.59-4.32-6.81-6.55-2.13-2.13-4.21-4.32-6.24-6.54-32.32-35.22-53.32-80.97-57.25-131.51-.45-5.72-.68-11.5-.68-17.34 0-7.03.32-13.97.97-20.83l.76-6.92c1.16-9.08 2.84-17.99 5.06-26.68-.11 2.47-.15 4.96-.15 7.46 0 7.37.43 14.63 1.25 21.75l.29 2.36c.83 6.55 2.04 12.99 3.53 19.31 1.51 6.32 3.35 12.52 5.46 18.56 6.06 17.14 14.52 33.13 25.02 47.55 3.21 4.42 6.6 8.71 10.17 12.81a188.09 188.09 0 0 0 31.66 28.92 178.96 178.96 0 0 0 9.96 6.72c8.11 5.13 16.68 9.63 25.6 13.45z" fill="url(#K)"/></svg>