<svg xmlns="http://www.w3.org/2000/svg" viewBox="0 0 5120 5120" height="512" width="512"  cursor="move" xmlns:v="https://vecta.io/nano"><path d="M568 5110c-257-31-471-217-545-475-16-55-18-150-21-1085l-3-1024 1233-1236L2465 55-1 2515l4-985C5 634 7 540 23 485 88 258 264 83 490 23 551 6 680 5 2560 5l2070 18c228 61 406 239 467 467 17 61 18 190 18 2070l-18 2070c-60 226-234 401-462 467-56 17-187 18-2030 19-1084 1-2000-2-2037-6z" fill="#02aeee"/><path d="M4920 4175l-225-95c-27-13-66-28-85-35-103-37-984-413-1200-512l-125-58c-162-74-142-75-209 2-144 164-318 319-488 433-190 128-471 245-658 275l-90 15c-30 5-138 8-240 6-194-4-291-21-431-76-377-148-589-510-513-878 60-294 274-526 573-623 170-55 222-62 416-63 215-1 318 13 645 84 106 23 327 82 485 130 88 27 169 50 179 52 15 2 30-20 77-111 77-151 198-458 199-503 0-5-407-8-905-8h-905v-190h940v-330H1210v-180h1140v-250c0-331-30-300 295-300h245v550h1120v180H2890v330h461c461 0 461 0 455 28-52 216-168 530-283 762l-89 187c1 2 137 52 302 112 524 190 903 310 1337 422 37 10 37 10 37 364 0 195-3 355-7 354-5-1-87-34-183-74zm-3184-290c334-59 699-297 967-634 28-35 28-35-40-70-54-27-221-102-358-160-399-170-830-207-1130-98-99 36-163 75-226 137-309 304-103 735 394 825 100 18 287 18 393 0zM3 1530C6 431 2 503 77 350c52-104 169-221 273-273C502 2 444 6 1425 2h983l102 3L-1 2515l4-985zm737-54c0-6-47-58-105-116l-105-105 245-245 105 105c58 58 109 105 115 105s31-20 55-45c45-45 45-45-218-307-262-263-262-263-307-218-25 24-45 49-45 54 0 6 46 57 102 113l103 103-123 122-122 123-103-103c-56-56-107-102-112-102-13 0-85 72-85 84 0 6 116 127 257 268 258 258 258 258 300 216 24-23 43-47 43-52zm508-499c23-23 42-47 42-52s-53-63-117-129c-118-118-118-118-78-113 22 3 122 14 222 23 183 18 183 18 233-31 51-50 60-69 38-78-7-2-111-13-231-23s-222-21-228-25c-6-3-16-99-23-213-8-128-18-212-25-219-9-9-23 0-61 38-49 50-49 50-36 250 7 110 11 202 9 204-2 3-50-41-106-97S780 410 774 410c-5 0-30 20-54 45-45 45-45 45 215 305l265 260c3 0 25-19 48-43z" fill="#fff"/></svg>