<svg xmlns="http://www.w3.org/2000/svg" viewBox="0 0 3840 3840" height="384" width="384"  cursor="move" xmlns:v="https://vecta.io/nano"><style><![CDATA[.B{fill:url(#A)}]]></style><defs><linearGradient y2="98.697914%" x2="49.739582%" y1="1.0416666%" x1="49.739582%" gradientUnits="userSpaceOnUse" id="A"><stop offset="0%" stop-color="#70be43"/><stop offset="69%" stop-color="#4f872f"/><stop offset="100%" stop-color="#253d15"/></linearGradient></defs><path d="M0 1920V0h3840v3840H0V1920z" fill="#e61c25"/><path d="M0 1920V0h3840v3840H0V1920zm2045 246c352-55 614-278 725-616 26-78 33-117 37-215 10-222-36-386-157-565-51-75-192-206-271-253-254-149-568-166-833-44-99 46-157 86-239 166-88 84-135 147-186 249-71 141-86 212-86 402 1 160 2 168 33 260 117 339 373 559 717 615 106 17 152 17 260 1zm-270-120c-394-76-671-447-627-841 20-178 82-318 200-446 156-169 342-251 572-251s416 82 572 251c78 85 123 159 160 262 109 308 14 652-238 861-69 57-213 131-299 153-84 22-254 28-340 11zm329-46c324-83 555-381 556-717 0-286-159-541-416-666-116-57-183-72-324-71-89 0-144 5-189 18-242 67-435 250-517 491-39 114-45 277-15 396 40 161 129 305 251 404 73 60 193 121 282 145 102 26 269 27 372 0zm-594-225c0-2 13-37 29-77 45-114 80-286 90-449 5-80 7-157 5-170s-5-54-7-91l-5-68h89c81 0 89-2 89-19 0-23-18-167-25-198-5-22-3-23 60-23h65v169l-32 3c-21 2-33 8-33 18s12 16 33 18l32 3v288l-27 3c-37 4-40 25-4 33l31 7v79c0 69-2 79-18 79-14 0-21 14-31 63-7 34-33 124-57 200l-45 137h-120c-65 0-119-2-119-5zm220-310c13-40 25-39 33 5 4 17 13 30 21 30 12 0 16-13 16-52 0-29 3-114 6-188s2-150-1-168c-11-59-89-70-113-17-16 34-16 311-1 320 7 5 8 25 4 56-6 40-4 49 8 49 9 0 21-15 27-35zm-3-81c-10-11-9-162 2-168 5-4 17-3 25 0 24 9 19 167-4 172-9 1-19 0-23-4zm-5-251c3-40 6-48 23-48s20 8 23 48c3 45 2 47-23 47s-26-2-23-47zm363 635c-49-149-95-305-100-341-6-37-11-47-27-47-17 0-19-7-16-82 3-76 5-83 26-88 33-7 32-24 0-28l-28-3V891l33-3c20-2 32-8 32-18s-12-16-32-18l-33-3V680h58c32 0 61 2 63 5 3 2 0 44-7 92-7 49-13 100-13 116l-1 27h175l-3 186c-5 246 22 421 89 592 16 40 29 75 29 77 0 3-54 5-120 5-88 0-122-3-125-12zm25-355c0-75 4-95 31-153l31-67-36-72c-20-39-38-71-41-71s-21 32-41 72l-36 72 31 63c28 57 31 73 31 153 0 73 3 90 15 90s15-16 15-87zm-31-183c-12-34-12-36 1-75l11-30 20 32c18 29 19 34 5 67-18 44-24 45-37 6z" fill="#fff"/><g fill="#6fbc43"><path d="M840 3830c-8-5-38-10-67-10-255-1-530-184-677-451-37-67-60-151-78-279C4 2991-5 889 9 840c5-19 14-79 20-132 17-148 67-262 172-388C307 192 478 79 615 45 762 9 855 6 1915 6c1065 0 1161 3 1310 39 221 55 461 270 547 491 16 41 32 110 38 165 6 52 16 110 21 130 12 48 12 2135 0 2191-5 24-17 90-25 147-9 59-27 128-41 158-77 168-237 334-408 419-82 42-153 61-277 76s-2218 22-2240 8zm90-420v-91l175 6 1 85 2 85h57v-390h-58l-2 150-175 6v-161h-60v400h60v-90zm508 76c63-33 87-97 58-155-13-24-35-40-92-66-63-29-74-37-74-59 0-45 71-63 104-27 15 16 21 18 37 8 25-16 24-29-7-58-20-19-36-24-79-24-46 0-58 4-84 29-24 23-31 39-31 66 0 45 24 69 102 104 67 29 88 60 70 101-22 48-101 45-122-5-9-21-19-30-36-30-32 0-37 13-20 54 27 65 111 95 174 62zm358-28c47-52 47-98 0-142-30-29-32-34-20-51 24-33 17-91-15-127-26-30-35-33-100-36l-71-4v404l86-3c84-4 86-5 120-41zm397 24c22-10 27-18 27-47 0-39-5-42-32-19-25 24-108 30-144 11-51-27-77-62-81-114-10-116 113-190 220-133l37 20v-35c0-30-4-37-36-50-196-82-379 178-227 321 64 60 155 78 236 46zm155-72c2-46 8-90 14-97 16-20 66-16 78 6 5 11 10 56 10 100v81h62l-4-106c-3-102-4-107-31-130-30-25-75-31-107-14-13 7-21 7-25 0-3-5-17-10-31-10h-24v261l28-3c27-3 27-4 30-88zm405 79c26-14 67-50 67-59 0-4-11-12-24-18-20-9-27-7-42 9-21 23-71 25-96 2-38-34-23-43 72-43 90 0 90 0 90-25 0-62-55-115-120-115-17 0-44 7-60 15-79 41-80 187-2 229 33 18 85 20 115 5zm207-89c0-91 2-100 19-100 12 0 20-9 23-25 6-29 2-35-24-35-15 0-18-8-18-50 0-49-1-50-30-50s-30 1-30 49c0 29-5 51-12 53-16 6-18 49-1 55 10 4 13 31 13 104v99h60v-100zM310 2770v-91l175 6 1 85 2 85h57v-390l-54-6-6 156-175 6v-161h-60v400h60v-90zm356 82c6-4 17-25 26-47l16-40h184l18 45c15 38 22 45 49 48 17 2 31 0 31-5 0-4-36-89-79-188l-91-209c-10-28-11-28-24-10-15 23-186 396-186 407 0 9 42 9 56-1zm443-128c0-74 1-137 3-140 3-2 68 57 145 131 78 74 144 135 147 135 4 0 5-87 4-192l-3-193-27-3-28-3v135c0 103-3 136-12 135-7 0-37-28-66-62s-91-102-137-152l-85-90v435h61l-2-136zm667 117c55-25 93-77 103-140 4-28 6-53 3-56s-41-5-84-5h-78v30c0 29 1 30 50 30 54 0 56 3 36 38-42 77-158 81-225 9-36-39-40-111-9-157 49-74 151-91 221-37 30 22 37 24 52 13 24-18 14-40-32-70-80-53-184-43-258 25-51 48-69 93-63 160 7 68 44 120 109 153 63 31 117 33 175 7zm529 5c38-16 75-68 75-104 0-45-28-80-87-107-88-41-88-40-91-65-7-44 62-68 99-34 19 18 59 11 59-10 0-20-44-55-78-62-42-8-74 1-111 32-24 20-31 34-31 63 0 45 24 71 95 102 64 28 85 46 85 76 0 65-88 84-125 26-20-33-39-40-63-24-21 13 10 77 50 101 39 24 76 25 123 6zm375-16v-30h-160v-140h160v-60h-160v-80h160v-60h-220v400h220v-30zm162-110l3-140 142 135c78 74 144 135 147 135s6-88 6-196v-195l-62 6 1 138c1 75-2 137-6 136-4 0-38-35-76-77l-142-157-74-80-1 218v217h59l3-140zm654 121c55-25 93-77 103-140 4-28 6-53 3-56s-41-5-84-5h-78v30c0 29 1 30 50 30 54 0 56 3 36 38-42 77-158 81-225 9-36-39-40-111-9-157 49-74 151-91 221-37 30 22 37 24 52 13 24-18 14-40-32-70-80-53-184-43-258 25-51 48-69 93-63 160 7 68 44 120 109 153 63 31 117 33 175 7zm-1451-675c352-55 614-278 725-616 26-78 33-117 37-215 10-222-36-386-157-565-51-75-192-206-271-253-254-149-568-166-833-44-99 46-157 86-239 166-88 84-135 147-186 249-71 141-86 212-86 402 1 160 2 168 33 260 117 339 373 559 717 615 106 17 152 17 260 1z" class="B"/><path d="M1650 3379v-62l45 5c55 7 75 22 75 59 0 36-32 59-82 59h-38v-61zm0-169c0-48 1-50 28-50 31 0 62 26 62 52 0 23-33 48-63 48-26 0-27-2-27-50zm990 122c0-11 46-32 68-32 18 1 52 23 52 34 0 3-27 6-60 6s-60-4-60-8zM740 2695c0-14 62-126 67-121s53 117 53 124c0 1-27 2-60 2s-60-2-60-5z"/></g><g fill="#69b23f"><path d="M868 3834c-3-3-48-9-99-14-222-22-386-102-535-263-125-135-187-263-205-427-5-47-14-110-19-141-6-33-10-428-10-971l13-921c9-4 9-8-2-15-8-6-9-11-2-13 5-2 11-19 13-37 2-25 6-31 18-26 8 4 22 7 30 7 201-4 953-2 960 2 6 3 10-5 10-19s5-28 10-31c6-3 10-21 10-38 0-24 3-28 10-17 8 12 10 10 10-8 0-13 4-21 10-17 5 3 6 13 3 22-4 11-3 14 5 9s10-2 6 8c-3 9-11 13-17 9s-8 0-4 11 3 15-4 10c-8-4-9 1-4 17 5 19 4 21-5 9s-11-10-7 13c2 15 1 27-3 27-5 0-6 10-2 22 4 16 2 19-8 13s-11-2-6 19c3 14 3 26-2 26s-7 15-5 32c3 20 1 28-4 21s-8 46-8 122c0 73 3 131 8 128 4-2 8 13 9 34 1 44 3 52 11 73l32 85c141 380 536 625 929 575 367-47 642-273 756-620 28-84 32-116 41-273 9-174 6-214-12-186-7 11-9 11-9-1 0-8-3-26-6-40-4-17-3-21 4-12 7 11 10 11 15-1 3-9-1-21-9-27-11-10-14-10-14 1s-2 11-10-1c-5-8-9-22-9-30 0-10 3-8 9 5l9 20 1-20c1-19 2-19 12 2 6 12 18 23 27 25 9 1 233 2 499 0l482-2v-30c0-17 3-30 8-30 4 0 7 23 8 51 0 32 6 54 15 60 12 8 12 11-1 20-11 8-12 12-2 16 15 6 18 1789 2 1887-5 33-14 100-19 147-13 111-41 196-96 284-115 185-308 334-491 380-142 36-236 39-1300 42-578 2-1053 1-1056-3zm62-424v-91l175 6 1 85 2 85 62 6v-402l-31 3-32 3-2 150-175 6v-161h-60v400h60v-90zm510 75c65-34 89-107 53-162-10-15-47-40-90-59-54-25-73-38-73-53 0-48 71-69 104-32 15 16 21 18 37 8 25-15 24-29-3-55-71-65-198-23-198 66 0 49 25 76 101 106 65 27 89 60 71 100-22 49-101 47-122-4-9-22-19-30-37-30-31 0-38 21-18 60 32 62 113 87 175 55zm356-27c23-26 34-47 34-69 0-38-27-86-53-93-18-4-18-6-3-28 35-50 9-138-47-158-17-5-54-10-83-10h-54v402l86-3c84-4 86-5 120-41zm397 24c22-10 27-18 27-47 0-39-5-42-32-18-10 9-41 18-71 21-42 3-58-1-87-20-127-85-60-270 92-254 26 3 59 12 73 22l25 16v-36c0-33-4-39-35-52-76-31-170-8-232 57-58 61-69 139-32 216 20 42 81 94 124 106 29 8 116 1 148-11zm157-66c0-92 11-116 55-116 35 0 45 28 45 119v81h60v-101c0-97-1-102-28-129s-33-28-110-27h-82v257h60v-84zm403 73c26-14 67-50 67-59 0-4-11-12-24-18-20-9-27-7-42 9-21 23-71 25-96 2-38-34-23-43 72-43 90 0 90 0 90-25 0-88-99-142-181-99-81 41-82 185-1 228 33 18 85 20 115 5zm207-88c0-96 1-100 23-103 16-2 22-10 22-28s-6-26-22-28c-20-3-23-9-23-53 0-48-1-49-30-49s-30 1-30 49c0 34-4 51-15 55-8 3-15 15-15 26s7 23 15 26c12 5 15 26 15 105v99h60v-99zM310 2770v-91l87 3 86 3 2 170 33 3 32 3v-401h-69l2 78 1 77-174 6v-162l-32 3c-18 2-32 6-30 11 1 4 2 93 2 197v190h60v-90zm382 40l21-50h175l21 50c19 43 25 50 50 50 32 0 44-9 32-24-14-18-171-380-171-394 0-8-6-12-12-10-13 5-196 391-197 416-1 7 11 12 30 12 27 0 32-5 51-50zm418-85c0-74 3-135 6-135 4 0 68 59 144 130 76 72 140 130 144 130 3 0 6-88 6-195v-195h-69l2 135c1 74-1 135-5 135-3 0-24-20-45-44-77-88-242-264-245-261-2 2-2 100 0 219l3 216h59v-135zm699 98c42-34 67-80 77-140l7-43h-85c-47 0-87 2-90 5s-3 17 0 30c4 22 9 25 48 25 23 0 46 4 49 10 3 5-10 26-29 47-32 35-39 38-89 38-43 0-61-5-89-27-83-64-72-180 22-228 56-29 98-26 154 11 45 30 47 31 67 13 19-17 19-18-7-46-39-39-103-62-163-56-69 7-121 37-158 92-27 40-33 58-33 103 0 66 26 121 74 158 47 36 81 45 150 41 46-3 66-11 95-33zm534-2c27-27 32-39 32-80 0-61-17-81-101-118-48-21-66-34-71-52-12-47 53-68 100-31 24 19 26 19 47 2l22-18-36-32c-42-36-84-41-142-17-24 10-39 25-50 52-15 35-15 40 1 70 10 17 33 39 51 47l70 33c50 23 64 55 37 91-35 47-93 39-114-16-7-18-15-23-36-20-36 4-39 26-11 68 32 47 63 62 121 57 38-3 56-11 80-36zm339 14c3-13 3-27 0-30s-41-5-84-5h-78v-140h160v-60h-160v-79l82-3c81-3 83-4 83-28v-25h-112c-62 0-113 3-113 8v387h109c108 0 109 0 113-25zm158-110c0-74 3-135 6-135 4 0 68 59 144 130 76 72 140 130 144 130 3 0 6-88 6-195v-195h-70v275l-70-75-137-152c-64-72-103-100-89-62 3 9 6 105 6 215v199h60v-135zm689 98c42-34 67-80 77-140l7-43h-85c-47 0-87 2-90 5s-3 17 0 30c4 22 9 25 48 25 23 0 46 4 49 10 3 5-10 26-29 47-32 35-39 38-89 38-43 0-61-5-89-27-83-64-72-180 22-228 56-29 98-26 154 11 45 30 47 31 67 13 19-17 19-18-7-46-39-39-103-62-163-56-69 7-121 37-158 92-27 40-33 58-33 103 0 66 26 121 74 158 47 36 81 45 150 41 46-3 66-11 95-33z" class="B"/><path d="M1650 3379v-62l45 5c53 7 75 22 75 54 0 37-34 64-80 64h-40v-61zm0-169c0-47 2-50 25-50 32 0 67 34 58 57-8 26-33 43-60 43-21 0-23-4-23-50zm1009 110c27-23 58-25 84-6 28 22 20 26-45 26l-63-1 24-19zM748 2695c-3-3 8-33 24-67l30-62 29 63c16 34 29 64 29 67 0 6-106 5-112-1zm2054-1555c0-19 2-27 5-17 2 9 2 25 0 35-3 9-5 1-5-18zm-76-237c-14-30-22-52-17-49 5 4 12 0 15-6 3-7 4-4 1 7-2 11 0 27 5 35 8 13 10 13 10 1 0-13 2-13 13-2 9 10 9 15 0 18-7 2-9 11-6 19 4 11 8 12 13 4s9-7 13 3c3 9 0 18-7 20-8 3-23-16-40-50zM23 860c0-41 2-58 4-37 2 20 2 54 0 75-2 20-4 3-4-38zm3790-40c0-25 2-35 4-22 2 12 2 32 0 45-2 12-4 2-4-23zM1285 650c38-38 72-70 74-70 3 0-26 32-64 70-38 39-72 70-74 70-3 0 26-31 64-70zm1266 6c-46-47-59-66-50-71 8-5 11-4 6 0-9 11 104 126 116 118 6-3 7-1 3 5-4 7-8 12-9 12-2 0-31-29-66-64z"/></g><g fill="#61a53b"><path d="M878 3834c-3-3-50-9-104-15-126-12-202-31-289-74-208-101-388-311-439-511-32-124-39-293-43-997l-3-698 471 1c351 1 474-2 485-11s19-8 35 7c12 11 25 28 30 39 6 13 8-2 5-45-3-51-2-59 6-37 5 15 14 24 20 21 6-4 8 2 3 16-8 26 23 103 38 93 6-4 8 0 4 10-3 10-2 17 3 17s6 7 3 17c-4 11-3 14 5 9 12-7 16 5 12 34-1 8 2 12 6 8 4-5 25 20 47 53 182 279 521 440 841 399 264-34 435-132 633-364 33-39 33-39 33-57 0-5 5-7 12-3 6 4 8 3 4-4-3-6-1-16 6-24 7-7 14-20 16-28s8-18 14-21c5-3 9-9 9-13-4-25 0-36 11-30 7 5 9 2 5-9-7-18 19-32 27-14 3 7 3 1-1-13-7-27-7-33-4-70 1-18 4-21 10-12 7 11 9 11 14-2 4-9 2-16-3-16-6 0-10-4-10-10 0-5 7-10 16-10 17 0 16 4-1 70-4 14-3 20 2 13 4-6 15-12 23-13s239-2 513-1l497 1v672l-10 752-19 167c-12 108-39 189-93 279-110 184-309 339-495 385-138 35-248 39-1299 42-572 2-1043 1-1046-3zm52-424v-91l175 6 1 85 2 85 62 6v-402l-32 3-33 3v150l-175 6v-161h-60v400h60v-90zm510 75c67-35 91-115 50-167-11-14-49-38-85-53-71-31-88-54-59-86 22-24 55-24 86 1 23 17 27 18 47 3l23-15-28-29c-71-74-204-34-204 61 0 49 31 84 92 102 47 14 88 50 88 77 0 28-38 61-71 61-30 0-54-19-64-50-7-23-53-28-61-6-9 22 24 75 59 96 38 24 87 26 127 5zm342-10c48-36 61-91 33-145-9-17-23-30-31-30-12 0-15-6-9-22 38-119-5-178-130-178h-55v402l83-3c63-3 88-9 109-24zm403 11c31-13 35-19 35-50 0-40-5-43-32-20-27 25-106 29-147 7-52-27-76-66-76-123s24-96 76-123c40-21 121-17 149 8 25 22 30 19 30-21 0-31-4-37-35-50-83-34-198 1-251 77-73 105-19 262 103 299 44 13 111 11 148-4zm165-70c0-92 11-116 55-116 35 0 45 28 45 119v81h60v-95c0-146-16-164-147-163l-73 1v257h60v-84zm438 53c38-29 39-42 8-57-20-9-27-7-42 9-21 23-71 25-96 2-38-34-23-43 72-43 90 0 90 0 90-25 0-70-62-121-137-112-55 6-87 35-103 91-15 55 8 119 54 148 42 26 113 20 154-13zm172-68c0-96 1-100 23-103 16-2 23-11 25-30 3-24 0-28-22-28-24 0-26-3-26-50 0-49-1-50-30-50s-30 1-30 49c0 34-4 51-15 55-8 3-15 15-15 26s7 23 15 26c12 5 15 26 15 105v99h60v-99zM310 2770v-91l87 3 86 3-4 175h71v-400h-71l4 155-173 6v-162l-32 3c-18 2-32 6-30 11 1 4 2 93 2 197v190h60v-90zm382 43l23-48 172-6 21 51c18 44 25 50 50 50 40 0 42-5 21-48-42-88-159-360-159-371 0-36-31 9-80 115l-95 204-43 93c-2 4 12 7 32 7 33 0 38-4 58-47zm418-88c0-74 4-135 9-135s14 7 21 15 70 70 141 136l129 121v-402h-71l3 135c2 74 0 134-3 133-6-3-91-93-230-245-31-34-58-60-60-58s-3 100-1 219l3 216h59v-135zm699 97c47-38 69-77 77-135l7-47h-86c-89 0-103 6-92 40 5 16 15 20 50 20 54 0 61 10 34 44-49 62-129 71-194 22-56-43-69-123-30-183 24-36 92-66 137-60 34 5 52 13 104 52 9 6 19 3 34-10l20-18-26-29c-84-87-244-73-321 29-21 27-28 49-31 98-5 74 19 129 72 170 47 36 81 45 150 41 46-3 66-10 95-34zm538-6c64-69 35-154-64-191-82-31-102-60-61-89 30-21 50-20 77 3 19 16 27 18 47 9 28-13 29-16 6-44-42-50-117-59-172-21-45 30-57 69-36 113 13 28 31 41 90 68 85 39 100 62 69 105-35 46-93 38-114-17-7-18-15-23-36-20-36 4-39 26-11 68 32 47 63 62 122 57 42-4 55-10 83-41zm338 14c0-24-2-25-82-28l-83-3v-139h160v-60h-160v-79l83-3c81-3 82-3 85-30l3-28h-241v58c0 31 3 121 7 200l6 143 111-3c111-3 111-3 111-28zm155-105c0-74 3-135 6-135s68 59 144 130c75 72 140 130 144 130 3 0 6-88 6-195v-195h-69l-6 269-135-149c-74-82-140-149-146-149-8-1-11 35-9 117l3 215 2 97h60v-135zm689 97c47-38 69-77 77-135l7-47h-86c-89 0-103 6-92 40 5 16 15 20 50 20 54 0 61 10 34 44-49 62-129 71-194 22-56-43-69-123-30-183 24-36 92-66 137-60 34 5 52 13 104 52 9 6 19 3 34-10l20-18-26-29c-84-87-244-73-321 29-21 27-28 49-31 98-5 74 19 129 72 170 47 36 81 45 150 41 46-3 66-10 95-34z" class="B"/><path d="M2659 3320c27-23 58-25 83-6 26 19 12 26-51 26l-56-1 24-19zM748 2695c-3-3 8-33 24-66l29-61 30 62c16 34 29 64 29 66 0 6-106 5-112-1zm2054-1265c0-19 2-27 5-17 2 9 2 25 0 35-3 9-5 1-5-18zm14-55c-3-9-5-53-4-98l1-82 7 95c7 100 6 111-4 85zm-1793-90c0-33 2-45 4-27s2 45 0 60-4 0-4-33zm257-630c30-30 57-55 59-55 3 0-19 25-49 55s-57 55-59 55c-3 0 19-25 49-55zm1265-7l-50-53 53 50c48 46 57 55 49 55-1 0-25-24-52-52z"/></g><g fill="#589636"><path d="M860 3829c-25-4-89-13-143-18-204-23-385-128-529-309C28 3300 10 3198 3 2462l-3-433 672 1c566 1 676 4 692 16 34 24 42 15 11-12-24-21-27-27-15-35s10-9-6-4c-20 5-29-2-33-30-1-5-23-32-49-60-30-31-19-23 28 20 41 38 75 74 75 80 0 5 8 10 17 10s20 4 25 9 2 6-6 1c-10-5-12-4-7 4 4 6 11 9 16 6 13-8 71 30 62 40-4 5-2 5 5 1s34 4 60 18c69 34 174 63 281 77 105 13 232 2 337-31 33-10 69-20 80-22 11-1 26-9 33-16 8-7 17-10 22-7s10 1 12-4c1-5 10-11 18-13s21-9 28-16c8-7 18-10 23-6 5 3 12-1 15-10 3-8 12-12 20-9 9 3 14-1 14-12 0-9 3-14 8-11 8 5 44-18 43-28-1-3 1-6 4-6h12c3 0-2 9-11 19-24 27-13 40 26 32 18-3 325-5 681-3l648 2-4 433c-4 442-15 647-42 762-47 205-249 437-462 531-79 35-151 52-279 66-128 13-2122 20-2194 7zm70-419v-91l174 6v85l1 85 33 3 32 3v-401h-72l3 78 4 77-88 3-87 3v-162l-32 3c-18 2-32 6-30 11 1 4 2 93 2 197v190h60v-90zm547 46c47-51 47-106 0-150-19-17-57-39-85-49-58-20-74-47-46-78 22-25 59-24 85 2 20 20 21 20 46 3l27-17-37-33c-30-28-45-34-80-34-70 0-117 41-117 102 0 47 33 82 92 100 44 13 88 49 88 73 0 21-44 65-65 65-27 0-55-20-65-46-8-20-16-25-37-22-36 4-39 26-11 68 32 47 63 62 122 57 42-4 55-10 83-41zm288 30c39-17 65-60 65-110 0-25-8-43-31-65-26-26-29-34-19-46 18-22 16-87-5-118-9-15-33-32-54-38-39-11-138-9-133 4 1 4 2 93 2 197v190h70c39 0 86-6 105-14zm420 0c31-13 35-19 35-50 0-20-2-36-5-36-2 0-19 9-37 20-84 51-198-3-214-101-12-72 47-146 124-156 33-4 67 5 125 35 4 2 7-13 7-33 0-32-4-38-37-52-27-11-56-14-97-10-182 17-254 243-112 352 60 45 146 58 211 31zm165-70c0-93 11-116 56-116 33 0 44 32 44 126v74h60v-95c0-111-14-150-57-159-40-7-163-2-163 7v247h60v-84zm445 50c37-29 37-42 1-55-15-6-28-3-45 10-13 11-33 19-45 19-27 0-66-27-66-46 0-11 18-14 91-14h92l-6-42c-3-26-15-51-31-67-23-22-35-26-85-26-49 0-64 4-85 24-60 57-53 163 15 209 46 32 113 26 164-12zm165-65c0-96 1-100 23-103 16-2 23-11 25-30 3-24 0-28-22-28-24 0-26-3-26-50 0-49-1-50-30-50s-30 1-30 49c0 34-4 51-15 55-8 3-15 15-15 26s7 23 15 26c12 5 15 26 15 105v99h60v-99zM312 2773l3-88h168l-4 175h71v-400h-70v161l-165-6-3-77-3-78h-69l10 398c0 1 13 2 30 2h29l3-87zm381 40l22-48h170l23 48c19 40 27 47 51 47 39 0 41-6 21-48-23-48-146-331-160-366-5-15-14-25-18-22-5 3-26 45-47 93s-65 144-97 212l-58 127c0 2 16 4 35 4 32 0 37-4 58-47zm419-90l3-138 105 100 148 140 42 39v-404h-69l-6 267-140-153c-77-85-144-154-149-154-6 0-3 350 4 438 0 1 13 2 30 2h29l3-137zm648 127c67-18 130-107 130-181v-29h-180v30c0 29 1 30 49 30 28 0 53 5 56 10 11 18-59 78-100 86-57 10-122-26-147-84-31-70-9-131 61-170 59-33 119-26 168 20 20 19 26 20 48 8 32-17 32-23-7-60-79-73-212-67-293 14-47 48-68 112-55 169 28 126 143 192 270 157zm556-6c63-30 84-116 42-169-12-15-49-40-83-55-71-32-80-42-65-70 17-32 57-36 86-10 21 21 27 22 49 10 32-17 32-22-7-60-30-30-35-32-90-28-65 5-103 31-113 79-11 48 18 87 90 120 35 16 70 38 79 50 18 27 8 59-27 79-32 18-73 2-87-34-12-31-20-36-49-25-19 8-22 14-16 37 19 78 111 114 191 76zm372-16l3-27-166-6v-130l78-3 77-3v-58l-155-6v-70l165-6v-59h-240v193c0 107 3 197 7 201 4 3 57 5 117 4l111-3 3-27zm153-85c1-65 0-126-1-137-3-29 12-18 117 84l141 135 42 39v-404h-69l-6 268-140-154c-77-84-143-154-147-154-10 0-11 424-1 433 3 4 19 7 35 7h28l1-117zm639 107c67-18 130-107 130-181v-29h-180v30c0 29 1 30 49 30 28 0 53 5 56 10 11 18-59 78-100 86-57 10-122-26-147-84-31-70-9-131 61-170 59-33 119-26 168 20 20 19 26 20 48 8 32-17 32-23-7-60-79-73-212-67-293 14-47 48-68 112-55 169 28 126 143 192 270 157z" class="B"/><path d="M1650 3380v-63l47 6c100 11 100 103 0 114l-47 6v-63zm0-170c0-44 3-50 21-50 37 0 59 19 59 50s-22 50-59 50c-18 0-21-6-21-50zm-902-515c-3-3 8-32 25-65l30-59 27 57c15 31 25 60 23 65-5 8-97 10-105 2zm1782-758c0-2 15-16 33-33l32-29-29 33c-28 30-36 37-36 29zm283-657c0-36 2-50 4-32 2 17 2 47 0 65-2 17-4 3-4-33zm-263-625c-24-25-42-45-39-45s25 20 49 45 42 45 39 45-25-20-49-45zm-1265-5c21-22 41-40 44-40s-13 18-34 40-41 40-44 40 13-18 34-40z"/></g><g fill="#4e842f"><path d="M920 3831c-8-5-65-11-125-14-187-9-301-50-444-158-155-116-269-281-308-442-14-61-30-294-40-569l-4-138h95c57 0 96-4 96-10 0-5 5-10 10-10 6 0 10 7 10 16 0 8 7 22 15 30 12 12 15 46 15 170v154h69l3-87 3-88 60-3c104-5 105-5 105 93v85h70v-146c0-90 4-143 10-139 5 3 19-13 30-35 13-26 25-38 33-33 20 12 61 9 74-7 10-13 12-10 13 15l1 30 22-26c12-14 28-35 34-45 7-10 3 2-9 29-12 26-26 47-31 47-4 0-6 4-2 9 5 9-6 36-86 209-22 46-39 86-39 89 0 2 17 3 37 1 34-3 40-8 60-50l23-48h74c83 0 97 8 117 65 12 32 17 35 52 35 27 0 38-4 34-12l-91-211c-48-109-86-203-84-209s10 8 16 31c7 23 19 41 27 41s12 8 10 20c-4 23 10 27 19 5 4-10 20-15 51-15 25 0 45-4 45-10 0-19 18-10 23 11 3 12 10 18 16 14 8-4 11 46 11 164v171h70v-99c0-55 4-111 10-125 6-17 6-26 0-26s-10-5-10-11c0-12 38 20 195 170l100 94 7-144c6-111 11-146 23-155 8-6 15-18 15-27 0-17 33-33 38-19 4 13 41 3 63-16 10-9 15-20 12-25-3-6-2-8 3-4 5 3 26-3 47-13 20-10 37-14 37-9s-17 16-37 24c-71 30-132 111-133 175 0 112 97 209 212 210 60 0 95-13 137-53 40-38 61-83 61-132v-35h-180v29c0 26 3 29 45 34 26 2 49 8 52 11 12 12-34 61-71 75-99 38-213-76-173-171 41-94 157-121 230-54 23 21 32 24 48 15 31-16 34-38 8-67l-24-26 34 27c31 26 34 26 46 11 10-15 28-17 111-15 54 1 102 5 107 8 6 3 7 1 3-5-4-7-1-12 9-12 12 0 14 4 5 19-29 55-1 102 81 141 77 36 89 47 89 81 0 19-8 34-25 45-37 24-73 11-91-32-13-32-18-35-42-29-43 10-46 20-21 65 28 49 63 70 116 70 101 0 160-81 123-170-10-23-30-39-86-66-65-31-74-39-74-62 0-21 2-24 10-12 8 13 10 12 10-2 0-28 46-27 70 0 15 17 54 27 44 11-3-5 2-9 10-9 38 0 1-64-48-86-17-7-25-13-18-14 19 0 48 17 76 45 14 14 31 25 39 25 17 0 42-44 33-59-12-18 14-21 114-11l95 8-97-2-98-3v407h240v-59l-164-6v-130l79-5c78-5 80-6 83-32l3-27-165-6v-70h72c40 0 72 3 72 8 0 4 8 7 19 7 20 0 35-36 23-54-4-6-10 3-13 19-6 29-7 29-8-8-1-35 0-36 19-25 11 7 20 20 20 28 1 11 4 10 15-4 8-11 13-28 10-37-3-10-1-20 5-24 8-5 11 2 10 21-1 16-2 113-1 217l1 187h34c19 0 36-6 38-12 2-7 5-67 7-133l5-122c0-1 63 59 138 133s139 134 142 134 6-87 6-192c0-128 4-188 10-178 8 13 10 12 10-2 0-10-4-18-10-18-5 0-10-5-10-11 0-8 5-8 15 1 8 7 15 20 15 30 0 18 15 21 37 7 7-5 9-1 6 12-4 16-1 19 18 14 30-8 59-34 52-46-3-6-2-8 3-4 5 3 26-3 47-13 20-10 37-14 37-9s-17 16-37 24c-71 30-132 111-133 175 0 113 97 209 213 210 60 0 103-18 144-61 37-40 53-77 53-125v-34h-180v29c0 26 3 29 45 34 26 2 49 8 52 11 12 12-34 61-71 75-99 38-213-76-173-171 41-94 157-121 230-54 23 21 32 24 48 15 31-16 34-38 8-67l-24-26 34 27c29 24 35 26 45 13 13-18 24-20 134-18l83 2-4 138c-14 437-34 598-88 704-107 211-319 389-529 443-34 9-116 21-183 27-148 13-2095 21-2117 9zm12-418l3-88h168l-4 175h71v-400h-70v160H930v-161l-62 6 2 393c0 1 13 2 30 2h29l3-87zm545 43c64-69 35-154-64-191-51-19-83-41-83-58 0-20 33-47 57-47 12 0 32 9 44 21 19 19 24 20 45 8 29-15 29-17 1-53-20-24-33-30-78-33-67-6-118 23-131 74-14 55 11 89 96 127 54 25 75 40 79 57 8 30-16 67-48 75s-75-19-75-47c0-17-5-20-32-17-41 4-46 24-16 68 32 47 63 62 122 57 42-4 55-10 83-41zm324 6c23-26 29-42 29-78 0-38-5-51-30-74-29-27-29-29-15-56 19-37 19-48-1-90-23-48-61-66-135-62l-61 3 2 394c0 2 41 1 91-1 88-4 93-6 120-36zm384 24c31-13 35-19 35-51 0-20-3-35-7-33-5 2-26 12-48 22-143 65-269-109-159-219 54-54 112-56 207-7 4 2 7-14 7-37 0-38-2-41-37-50-114-32-216 8-265 103-53 101 0 233 109 271 50 18 115 18 158 1zm165-69c0-71 3-87 20-102 27-24 66-13 75 22 3 14 5 56 4 92l-3 66 66 6-4-111c-4-144-10-150-135-147l-85 2 2 253c0 1 14 2 30 2h30v-83zm413 69c18-7 40-23 50-34 18-20 18-21-7-37-24-16-27-16-52 4-15 12-36 21-48 21-27 0-66-27-66-46 0-11 19-14 96-14 86 0 95-2 90-17-3-10-8-30-11-45-4-14-18-37-32-50-20-19-35-23-85-23-55 0-62 3-88 32-100 111 15 268 153 209zm197-86v-100h25c21 0 25-5 25-30s-4-30-25-30c-23 0-25-3-25-50 0-49-1-50-30-50s-30 2-30 45c0 31-5 47-15 51-8 4-15 16-15 29 0 12 7 28 15 35 11 9 15 35 15 106v94h60v-100z" class="B"/><path d="M1652 3383c3-52 5-58 26-61 33-5 80 16 87 39 14 44-23 79-86 79h-30l3-57zm-2-168c0-52 16-65 56-47 46 22 22 92-32 92-22 0-24-4-24-45zm1000 115c0-20 48-34 75-22 40 18 29 32-25 32-27 0-50-5-50-10zm-1370-666c-30-32-56-62-56-68-4-30-17-55-26-50-5 3-1 15 9 27 14 18 12 17-10-2-27-24-36-38-18-26 5 3 12-4 16-15 5-16 15-20 51-20 24 0 44-4 44-10 0-20 16-9 27 18 10 25 11 23 12-25 1-29 4-53 9-53 6 0 6 114-1 238l-2 44-55-58zm1691-42l-80-87 27-11c42-18 112-24 112-11 0 7 5 5 10-3 7-11 10-6 10 22 0 20 5 40 10 43 12 8 13 122 1 129-5 3-45-33-90-82zm-2215 69c-8-12 28-83 38-74 4 4 4 0 0-10-3-9-1-17 5-17 12 0 61 97 53 105-9 9-90 6-96-4zm-428-78c-10-2-18-12-17-21 1-20 17-62 18-47 1 5 8-1 17-13 8-12 26-22 39-22s27-4 30-10c11-18 31-10 42 18 10 25 11 23 12-25 1-29 4-53 9-53 4 0 5 39 2 87l-5 88-65 2c-36 0-73-1-82-4zm1460-139c-38-20-36-28 2-9 17 9 30 18 30 20 0 7-1 6-32-11zm1720 0c-38-20-36-28 2-9 17 9 30 18 30 20 0 7-1 6-32-11zm-2424-26l-29-33 33 29c30 28 37 36 29 36-2 0-16-15-33-32zm-855 8c13-15 70-19 92-5 9 5-2 7-29 6-24-2-46 1-48 5-3 4-10 8-16 8-7 0-7-5 1-14zm1967 0c5-14 58-15 72-1 4 4-8 6-25 3-18-2-33-1-33 4 0 4-4 8-10 8-5 0-7-6-4-14zm-1696-6c0-5 7-10 15-10s15 5 15 10c0 6-7 10-15 10s-15-4-15-10zm860 0c0-5 7-10 15-10s15 5 15 10c0 6-7 10-15 10s-15-4-15-10zm301 6c7-7 77-11 84-5 3 3-16 7-42 8s-45-1-42-3zm1394-6c6-10 75-11 75-1 0 4-18 7-40 8-22 0-38-3-35-7zm326 6c7-7 77-11 84-5 3 3-16 7-42 8s-45-1-42-3z"/></g><g fill="#47772a"><path d="M945 3830c-11-5-52-9-92-9-91-1-214-18-273-38-253-85-484-332-536-573-20-95-31-364-15-374 6-4 11-2 11 4 0 8 27 11 84 9 46-1 89 2 96 6 9 5 11 4 6-3-4-7-2-12 3-12 6 0 11 3 11 8 0 4 16 12 34 18 23 7 34 7 33 0-1-5 12-11 28-12l73-8c23-3 42-1 42 5 0 16 18 10 23-8 4-17 5-17 6 0 1 10 9 17 20 17s23 5 26 10c9 15 25 12 25-4 0-8 7-17 16-20 8-3 13-2 10 3-8 13 62 19 109 9 41-9 193-10 206-2 4 2 6-10 5-26-3-38 2-38 15 0 8 22 17 30 35 30 13 0 26-1 27-2 2-2 11 3 20 10 14 12 15 10 7-18-9-32-9-32 10-15 11 10 20 14 20 9s4-4 8 1c12 16 72 35 69 22-2-13 8-14 151-19 83-2 105 0 112 12 5 8 10 11 10 5 0-5 17-11 38-12 79-4 140-11 151-17 6-4 11 0 11 11 0 15 2 16 10 3 7-11 10-11 10-2 0 7 4 11 8 8 4-2 29 0 54 5 36 8 57 7 90-4 27-9 49-12 59-6 9 4 19 6 22 3s70-6 149-6c78 0 148-4 155-10 8-6 19-4 35 5 57 36 128 28 182-20l31-28-24 27-23 27 23-1c13-1 29-5 35-10 7-5 14-3 18 7 9 26 25 17 29-17l4-33 1 33c2 36-10 33 149 33 40 0 75 5 78 10 11 18 23 9 18-13-4-18-3-20 6-8 8 12 11 11 19-10 9-23 9-23 14-2 10 36 27 25 31-20l4-43 1 43c2 39 4 42 30 42 15 0 33 5 39 11 7 7 11-15 12-77 2-109 11-126 11-21v76l88-3c48-1 95 1 105 6 29 14 21-14-19-68l-37-49 51 49c28 27 49 53 46 58-3 4 2 5 10 2 9-3 16-1 16 5s4 11 9 11c6 0 12-19 14-42l4-43 1 43c2 48 1 47 46 28 21-9 38-10 49-4 11 5 24 5 37-2 17-9 20-8 20 7s2 16 10 3c7-11 10-11 10-2 0 7 4 11 8 8 4-2 29 0 54 5 36 8 57 7 90-4 27-9 49-12 59-6 9 4 19 6 23 2 3-3 56-5 117-4 70 1 116-2 124-9 22-18 29 46 22 189-11 217-51 327-172 477-81 102-187 186-300 240-105 49-159 62-333 76-155 13-2038 20-2067 8zm-13-417l3-88h168l-4 175h71v-400h-70v161l-165-6-2-150-38-3-37-3 5 198 6 201c1 1 14 2 31 2h29l3-87zm514 71c63-30 84-116 42-169-12-15-50-40-85-56-71-32-84-50-57-80 22-24 71-20 91 8 11 14 16 15 38 3 31-16 31-18 1-54-20-25-31-30-83-34-57-4-61-3-96 31-65 61-44 122 60 169 34 15 70 39 79 53 15 23 15 27 0 50-9 14-27 27-41 31-32 8-72-18-77-48-2-18-8-22-28-20-14 2-29 8-34 12-19 19 32 98 74 113 30 11 83 7 116-9zm355-22c41-46 41-112 1-152-27-26-28-30-14-55 19-37 7-91-28-127-26-26-34-28-105-28h-77l5 198 6 201c1 2 42 1 92-1 88-4 93-6 120-36zm404 18c15-12 22-85 8-78-95 49-153 47-207-7-76-76-43-194 63-226 39-11 114 1 126 21 13 22 25 8 25-29 0-35-3-40-31-50-118-41-252 22-285 135-14 49-14 59 0 107 18 61 64 111 122 133 45 17 156 13 179-6zm145-58c0-83 16-122 49-122 32 0 43 27 46 112l2 83 32 3 31 3v-106c0-99-2-108-24-130s-32-24-114-23l-90 1 3 126 4 129c1 1 15 2 31 2h30v-78zm413 67c26-14 67-50 67-60 0-3-13-12-29-19-26-10-32-9-50 9-12 12-32 21-46 21-28 0-69-35-60-51 4-5 44-9 91-8 46 1 86 0 88-2 3-3 1-22-4-44-28-123-201-130-240-9-21 62 10 143 64 164 30 13 94 12 119-1zm199-86c3-93 4-98 26-101 17-3 22-10 22-32s-5-29-22-32c-20-3-23-9-23-48 0-43-1-45-32-48-33-3-33-3-33 43 0 31-5 47-15 51-8 4-15 18-15 34s7 30 15 34c12 4 15 25 15 101v95h59l3-97z" class="B"/><path d="M1652 3383l3-58 38 1c108 4 94 114-14 114h-30l3-57zm5-130c-14-13-7-84 8-89 21-9 65 23 65 46 0 30-55 62-73 43zm993 75c0-12 22-21 53-20 40 1 58 19 26 26-30 7-79 3-79-6zm-122-535c-2-5-1-30 3-58l6-50 1 42c1 23 5 48 8 57 6 16-11 23-18 9zm-1684-10c11-11 46-14 46-3 0 6-12 10-27 10-14 0-23-3-19-7zm-213-18c0-5 6-21 14-35s14-20 14-15c0 6-6 21-14 35s-14 21-14 15z"/></g><g fill="#406c27"><path d="M960 3831c-8-5-73-11-145-14-153-7-221-23-332-77-180-88-340-259-411-440-20-51-37-134-45-222-3-33-1-36 13-23 13 11 126 14 680 17l708 9c23 3 42 2 42-3 0-8 278 0 293 9 4 2 7-1 7-7 0-7 41-10 128-8 103 2 126 6 124 17-3 12 0 12 12 2 11-9 40-12 96-9 44 2 80 1 80-4 0-4 356-7 790-5l790-5c0-5 5-8 10-8 24 0-3 179-40 264-52 122-190 284-305 361-135 89-240 121-448 137-172 13-2025 21-2047 9zm-28-418l3-88h160l6 175h69l1-162 2-198c2-34 0-35-35-38l-38-3v161h-72c-40 0-79-4-86-9-22-14-11-138 11-124 7 4 6-1-2-10-8-11-28-17-52-17h-39v400h69l3-87zm514 71c42-20 64-59 64-111-1-51-25-77-103-112-73-33-89-57-56-84 23-19 52-15 80 9 19 17 29 17 53-1 18-14 18-15 1-41-11-17-12-24-4-18 11 6 11 5 0-9-9-11-21-15-34-11-14 4-17 3-12-7 6-9 3-11-9-6-10 4-35 7-56 7-56 0-110 48-110 97 0 44 48 93 108 111 79 24 99 88 38 122-23 13-29 13-53 0-18-10-29-26-31-43-3-23-7-27-30-24-40 5-50 30-28 71 33 61 112 83 182 50zm355-22c41-46 41-112 0-152-25-26-27-31-15-47 29-39 5-130-40-151-13-6-55-12-92-13l-69-3-3 203-2 203 96-4c94-4 97-5 125-36zm404 18c9-7 15-29 15-52v-39l-30 21c-45 32-90 36-143 12-135-60-89-254 61-254 30 0 60 6 76 18 24 15 29 15 37 3 5-8 7-20 4-27-3-8-5-20-5-27 0-23-67-38-139-31l-83 9c-9 1-15 3-13 6 3 2-13 23-35 47s-44 61-50 84c-25 92 34 202 125 236 46 17 157 13 180-6zm145-54c0-41 3-82 6-90 10-26 41-38 64-26 18 9 20 21 20 100v90h70v-104c0-91-3-107-22-131-20-25-25-27-80-23-32 2-58 2-58-2 0-3-16-4-35-2l-35 4v258h70v-74zm450 39c17-16 30-32 30-36 0-3-13-12-30-19-26-11-32-9-56 9-15 12-35 21-45 21-23 0-62-37-54-50 4-6 43-9 90-8 46 2 86 0 90-4 10-9-13-83-33-109-22-26-109-38-155-20-38 15-71 89-63 140 12 76 63 114 144 108 41-3 59-10 82-32zm162-62c3-93 4-98 26-101 17-3 22-10 22-32s-5-29-22-32c-21-3-23-8-20-55 2-56 0-58-48-44-22 6-24 11-22 49 3 31-1 44-12 48-20 8-21 60-1 68 12 4 15 25 15 101v95h59l3-97z" class="B"/><path d="M1654 3426c-3-7-4-33-2-57l3-44 39 1c28 1 45 8 58 24 23 29 23 36-7 65-27 28-82 34-91 11zm9-174c-17-11-13-80 4-87 18-6 55 13 48 26-4 5-1 9 4 9 19 0 12 28-11 44-26 18-28 19-45 8zm1001 78c-17-6-17-7 0-13 25-10 74-9 80 2 7 11-56 19-80 11z"/></g><g fill="#365b20"><path d="M985 3831c-11-5-81-11-155-14-196-8-311-42-440-130-66-45-176-154-225-222-46-65-99-164-92-172 3-2 11 9 18 25 9 22 16 27 25 18 6-6 9-18 6-26-5-13-3-13 10-2 13 10 90 13 348 13 182 0 335-3 340-6 4-3 10 1 13 7 3 8 9 3 15-12 9-20 11-2 11 83l1 108 74-6-1-82c0-65 3-83 14-83 8 0 11 5 7 11-4 8 0 7 15-1 12-6 46-10 76-9l55 2v167h70v-47c0-63 27-118 58-118 13 0 27-6 31-13 6-9 15-10 34-3 35 14 32-4-5-37-16-13-28-29-28-35 0-7 6-5 13 4s28 26 47 38c19 11 29 21 23 21-7 0-13 5-13 10 0 6 12 10 26 10s23-4 19-10c-3-5-2-10 3-10 6 0 13 7 16 16 3 8 10 13 15 10 15-10 33 21 29 51-7 61-102 65-114 4-8-40-45-47-75-15-13 13-18 24-12 24s16 13 23 29c19 47 44 62 107 68 50 4 63 2 93-19 19-13 39-37 44-53 4-17 12-38 17-47 12-24 11-37-1-18-8 13-10 13-10-2 0-9-3-25-6-35-6-14-4-16 6-6 14 13 47 1 62-21 4-6 8 38 8 97v109l96-4c94-3 96-4 125-36 24-26 29-41 29-82 0-27-4-52-10-55-5-3-10-10-10-16 0-10 40 10 51 25 4 5 10-10 14-33 10-59 20-58 20 3 1 87 63 168 143 187 51 12 113 11 151-2 28-10 31-15 31-56 0-45-4-47-40-18-47 38-132 23-179-30-26-30-31-44-31-85 0-39 5-55 26-77l26-28-21 29c-23 32-28 82-8 89 9 4 8 8-3 16s-12 11-2 11c7 0 10 6 7 13-4 6 0 4 9-6 8-11 12-26 8-35-5-16-5-16 11 0 13 13 30 15 79 12l106-8c23-2 42 1 42 5 0 19 19 8 23-13 2-13 5 25 6 85l1 107h67l7-80c5-51 12-80 19-80s6-4-3-10c-13-8-13-10 0-14 8-3 26-4 40-3 25 2 25 4 28 95l3 93 37-3c31-3 37-7 37-28 5-123 5-125 16-110 9 12 10 10 6-8-5-19-3-21 9-11 11 9 14 8 14-8 0-11 9-28 20-38 21-19 21-19 5 11-32 61-8 149 50 180 49 26 128 15 167-24 33-33 32-46-7-56-18-5-34-1-52 14-32 25-44 25-77-1-42-33-23-41 75-33l90 7-2-42c-2-22-7-41-11-41s-8-5-8-11c0-8 5-8 15 1 12 10 18 10 30 0s15-10 15 4c0 9-4 16-9 16s-12 8-15 18c-4 10 4 6 19-11 14-15 25-27 26-25 0 2 2 37 4 78 1 41 3 85 4 98 1 20 6 23 34 20l32-3 2-93c2-94 7-118 22-94 9 15 0 15 379 13 166-1 307 1 312 4 6 3 10 1 10-4 0-6 5-11 10-11 6 0 10 7 10 15s5 15 11 15 9-7 6-14c-4-10-1-13 9-9 10 3 14-2 14-18s3-20 11-12c25 25-89 200-197 304-167 159-295 211-566 231-180 13-1983 21-2013 9z" class="B"/><path d="M1662 3432c-19-13-13-99 7-105 23-5 83 12 76 23-3 4 2 15 10 23 13 14 13 18-3 36-19 23-70 36-90 23zm998-112c20-13 77-13 85 0 4 6-14 10-47 10-38 0-49-3-38-10zm-300-80c8-5 24-10 34-10 26 0 18 6-19 14-22 5-26 4-15-4zm280-4c10-13 40-12 40 1 0 3-7 3-15-1-8-3-15-1-15 4 0 6-5 10-11 10-8 0-8-4 1-14z"/></g><g fill="#2e4c1b"><path d="M1025 3831c-11-5-90-11-175-14-176-7-254-23-356-72-91-44-215-140-208-160 4-8 1-15-5-15s-11-7-11-15c0-13 38-15 279-15 273 0 356-8 321-30-12-8-10-10 8-10 20 0 21 3 12 20-13 24-17 23 97 20 109-2 119-4 115-24-2-10 4-16 18-16 17 0 19 3 11 19-11 20 6 34 32 26 6-2 50-6 96-9s89-10 95-16c7-7 6-10-4-10-7 0-11-2-8-5 8-8 58 17 53 25-9 14 20 17 105 8 47-5 94-9 105-9 11-1 14-3 8-6-7-3-13-9-13-14 0-6 8-6 19 1 11 5 38 10 60 10 26 0 40 4 39 12-2 8 36 10 142 8 180-4 193-4 209-14 11-7 11-10 0-17-10-6-10-9-2-9 6 0 15 5 18 10 3 6 18 10 33 10 20 0 23 3 13 9-11 7-9 10 10 13 46 6 143-10 155-26 16-22 27-20 15 3-14 26 1 30 71 21 67-10 86-18 67-31-10-6-8-9 9-9 19 0 21 3 13 19-15 27-2 29 99 20 47-4 87-6 89-3 2 2 12-3 22-12 18-16 44-11 34 7-7 10 4 11 90 9 74-1 95-7 95-26 0-8 9-14 23-14 19 1 20 2 6 13-13 10-14 15-4 24 10 10 15 9 19-4 5-12 9-14 18-5s96 12 309 12c188 0 300 4 304 10 3 6 2 10-2 10-5 0-14 9-21 21-11 17-11 20 0 14 29-15-71 70-121 102-128 83-227 111-456 125-192 13-1921 20-1950 9z" class="B"/><path d="M2155 3500c11-5 27-9 35-9 9 0 8 4-5 9-11 5-27 9-35 9-9 0-8-4 5-9zm586-87c8-13 23-23 34-22 14 0 16 2 5 6-8 3-24 13-34 22-18 15-18 15-5-6z"/></g><path d="M1060 3830c-8-5-67-10-131-10-145 0-301-23-385-57-58-23-80-48-43-48 8 0 19-3 24-7 17-10 2825-7 2825 3 0 5 12 7 28 4 16-4 5 6-31 25-100 53-191 71-385 77-95 3-175 10-178 14-7 13-1705 11-1724-1z" class="B"/></svg>