<svg xmlns="http://www.w3.org/2000/svg" viewBox="0 0 146 137" width="326.45" height="306.326"  xmlns:v="https://vecta.io/nano"><linearGradient id="A" gradientUnits="userSpaceOnUse" x1="8.043" y1="99.154" x2="136.683" y2="99.154"><stop offset="0" stop-color="#5bc4f1"/><stop offset=".128" stop-color="#56bbe9"/><stop offset=".337" stop-color="#47a3d3"/><stop offset=".6" stop-color="#307bae"/><stop offset=".905" stop-color="#0f447d"/><stop offset="1" stop-color="#04326c"/></linearGradient><path d="M20.2 118.7c.1.1.1.2.1.3 0 .3-.2.4-.4.3l-.3-.3a.9.9 0 0 0-.6-.6c-.2-.1-.4-.4-.5-.6v-.3s.2-.1.3 0l1.4 1.2zm.7-21.2c.2.2.5.4.9.4 0-.3-.4-.6-.6-.8-1.1-1.1-1.8-2.4-2-2.7-2-3.2-2.5-7.9-2.3-8.4 0-.1 0-2.7-.3-3.1-.1.2-.1.4-.2.5-.2 1.3-.1 2.7 0 4.1 0 .4 1 6.6 4.5 10zM9 87.5h.1c0-1.3.1-3.6.2-4.9h-.2c-.2 1.2 0 3.4-.1 4.6-.1.1-.1.2 0 .3zm12.7 11.6v.3c.2.2.4.3.7.1-.1-.3-.2-.5-.5-.5 0 0-.2.1-.2.1zm-10.5-1c.2.6.3 1.2.6 1.8.2.4 1 2.5 1.3 2.6.1-.1-1.4-3.2-1.6-5.2h-.3v.8zM10 91.3c-.3.9-.3 1.5.4 2.6-.3-1 .2-1-.4-2.6zm3.6 14.7c-.1-.1-.1-.2-.2-.3-.2 1.1-.2 1.1.8 1.4-.2-.4-.4-.8-.6-1.1zM8.7 94.2c-.1-.6-.3-3.5-.3-4.4v-.7c-.2.2-.2.3-.2.5-.2 1.4 0 4.2 0 4.9.1 1.8 1.4 7.7 1.9 9.7 1 3 3 6.5 3.7 7.3.1.3.5.4.8.5-1.1-1.2-2-3.1-2-3.1-2.9-5.9-3.7-13.5-3.9-14.7zm78 33.6c-.2-.2-.6-.2-.7.1-.2.4-.6.5-.9.7-.2.1-.3.3-.2.5a.76.76 0 0 0 .4.2c.6-.2 1.1-.3 1.4-.9.1-.2.3-.4 0-.6zm-3.1 1.9c.1.1.3.3.4.2.1 0 .2-.3.3-.4-.1-.1-.3-.2-.5-.3-.1.3-.3.5-.2.5zm-64.8-12.2h-.3c0 .1-.1.2 0 .3.2.2.3.5.5.6.3.2.5.3.6.6 0 .1.2.2.3.3.2.1.4 0 .4-.3 0-.1 0-.3-.1-.3-.5-.4-.9-.8-1.4-1.2zm117.8-52.6v.3l-.3.9s-8.6 51.4-10.2 52.2c-.7-.3-4-9-4-9l-.3-.3-.2-.9-.2-.3c-.4.5-.9.9-1.4 1.3-.1.1-.2.1-.4.2v-.5c-.6.5-1.4 1.3-2.7 2.4-1.7 1.8-4.2 4-7.8 6.2-.3.5-1.4 1.2-1.3 1.2-.5.3-.9.6-1.4.9-.2.4-.5.5-.6.6-.4.4-.9.7-1.4 1l-3.7 1.9c-.8.5-1.7 1-2.5 1.4-.3.2-.5.4-.8.5-2.6 1.6-5.3 2.9-8.3 3.9-.6.2-1.2.4-1.8.7-1.2.9-2.5 1.5-4 1.8s-3 1-4.6 1.3c-6.4 1.8-12 2.4-18.5 2.9-4.2.3-9.8-.4-10.7-.5.3-.3.5-.5.9-.3.2.1.5.1.8.1s.7-.2 1-.2c3.2.5 10.3-.2 11.6-.3 12.9-1.2 22.3-8 22.3-8s-13 6.3-23.2 7.1c-9.1.7-17.3-.1-18.1-.2-.5-.1-2.1-.3-4.2-.8-1.2-.1-2.7-.5-4.7-1.2-.3 0-.6 0-.8-.3l-.9-.3h-.3c-.2-.1-.5-.2-.7-.3s-.3-.2-.5-.3c-1.4-.6-2.8-1.3-4.1-2.1-1.1-.7-2.2-1.4-3.3-2.2-.6-.3-1.1-.6-1.6-1.1-.4-.5-.9-.9-1.4-1.4-4.7-4.3-7.4-8.6-7.6-8.8.3-.2.4 0 .5.1.2.2 2.1 2.5 2.5 2.5.2-.3 0-.5-.2-.8-.7-.8-.2-.4-.9-1.2-.3-.3-.1-.5.4 0 1.2.9 1.2.6 1.8 1.1.1.1.7.3 1.1.2.2-.3-.7-1.4-1-1.8-.5-.8-1.5-1.7-1.7-1.8-.4-.2.2-.2 0-.6-.1-.3-1.3-1.1-1.2-1.6.1-.4.9.9 1.5 1.5.2.2.5.2.8.5.3.2 2.2 3.2 2.6 3.6.5.4 2.9 2.9 4 3.8.6.4 3.8 3 8.8 4.8 3.8 1.4 12.8 1.9 12.8 1.9s-8.8-1.8-12.1-3.1c-8.9-3.6-11.7-7.6-11.9-7.9l-6.7-7.5c-.1-.6-.9-1.5-.9-1.8s.4-.2.5-.1c.2.2.8 1.6 1.1 1.2.4-.3-.4-.6-.4-.9-.2-1-.6-2.2-1.1-2.6-.4-.3-.6-.9-1.1-1.9-.2-.3-.2-.7-.1-1 .1 0 .1 0 .2-.1.1.2.3.4.4.7.3.6 2.2 3.9 2.3 4 .5.7 1 1.3 1.5 1.9.8 1.1 1.9 2.4 3.1 3.4 1.9 1.8 3.8 2.6 3.8 2.6-4.5-3.1-6-5.4-8.5-9.8-1-1.8-1.3-3.3-1.6-3.7-.3-.7-.5-1.4-.7-1.8-.3-.6-.8-1.1-1.2-1.7-.3.2.1 1.3.2 1.6s.3.5.2.9c-.2.1-.4-.2-.4-.2-.3-.5-.9-2-1.1-2.4-1.3-2.8-1.1-5-1.1-6.2-.1-1.5 0-2.6 0-3.6 0-1.5.6-6.6.8-8 0-.2.1-.3.2-.6.3.7.2 1.2.2 1.8v4c-.2 2.2-.2 4.2.7 6.2.8 1.9.3 2.1 2.3 6.9 6.4 14.7 19.2 16 19.2 16s-12.6-4.5-18-15.1c-1.6-3.2-.5-.2-1.9-5.6-.2-.8-.4-1.9 0-1.9.3 0 .3-.9.4-1.3 0-.3-.1-.8.1-1 .3-.1.2 1.5.5 2.1.3.7-.7 0 .8 3.5.1.3 2 4.9 7.3 9.1l.6.3c.7.5 1.4 1.1 2.2 1.5.5.3 1.1.4 1.6.7 1.1.5 2.1 1.1 3.2 1.6 0 0 .5.2 1.3.6l.9.3c.6.2 1.3.4 1.9.5h.3c.9.2 1.7.4 2.6.5.6.1 2.6.2 3 .4a56.83 56.83 0 0 0 5.9.3c.4 0 .9-.1 1.3-.1.2 0 .4-.1.5.1h.1c2.4-.1 4.7-.4 6.9-.8.9-.2 2-.3 2.8-.4h.1c.3 0 .7-.1.8-.1-.2 0 .5-.1.7-.2.3-.1.6-.3.9-.4 1.1-.3 2.1-.8 3.2-1.2 2.2-.8 4.5-1.8 6.7-2.6 0 0 1-.4 2.6-1.1 2.1-1 4.1-2.1 6.1-3.1.3-.2.6-.4.9-.2.9-.4 1.8-.9 2.7-1.4 4.5-2.8 11.2-8.2 11.1-8.2.6-.4 1.8-1.5 1.8-1.4 1.1-.9 1.3-1.1 1.3-1.4s-1.4-.6-1.4-.6S85 84 85 83.6s6.4-2.3 10.9-4c.3-.2.6-.5.9-.6 4.2-1.1 11.4-5.1 15.6-6 13.1-5.5 20.9-9.5 21.9-10 2.3-1.1 2.4 1.2 2.4 1.2l-.1.7zM99.1 88.6c-1.4 1.2-2.7 2.4-4.1 3.5-1.4 1.2-2.8 2.3-4.2 3.3-1.4 1.1-2.9 2.1-4.4 3.1-.8.5-1.5 1-2.3 1.4-.8.5-1.6.9-2.4 1.3 1.7-.6 3.3-1.4 4.9-2.3s3.1-1.9 4.5-3 2.9-2.2 4.2-3.5c.7-.6 1.3-1.3 2-1.9.6-.6 1.2-1.2 1.8-1.9z" fill="url(#A)"/><linearGradient id="B" gradientUnits="userSpaceOnUse" x1="37.597" y1="34.324" x2="144.996" y2="34.324"><stop offset="0" stop-color="#04326c"/><stop offset=".128" stop-color="#093b74"/><stop offset=".337" stop-color="#18538a"/><stop offset=".6" stop-color="#2f7bae"/><stop offset=".905" stop-color="#50b2e0"/><stop offset="1" stop-color="#5bc4f1"/></linearGradient><path d="M119.5 38.1c.1.6-.1 1.1-.5 1.1-.4-5.9-2.8-10.1-3-10.5.5-.1.8.1 1 .4.3.7 1.9 4.3 2.5 9zm-3.4-10c0-.9-5.7-6.8-6.3-7-.1 0-.2 0-.4.1.1.2 4.7 4.2 5.8 6.3.2.4.5.6.9.6zm-9.1-8.8h-.4c.4.4 1.8 1.2 2.1 1.3.1 0-1-.9-1.7-1.3zm12.2 23c0 .2.2.4.4.4 0-.9.2-1.9-.2-2.6-.1 0-.2.1-.2.1v2.1zm25.6 2.6c-.2 1.1-.4 2.1-.7 3.1-.1 1-.7 2.5-1.4 3.9-.1.3-.2.5-.4.8h0c-.4.8-.7 1.4-1 1.7-.4.8-.9 1.5-1.1 1.7-.3.5-.6.9-.9 1.4-.1.2-.5 0-.4-.2.9-2 1.3-3.8 1.4-5.4-.5 1.2-1.9 2.5-2.1 3-.1.4-1 1.8-1.1 1.8-.7.5-1.6 1.6-2 2.4-.3.5-1.4 1.1-1.5 1.3-.2.3-.5.5-1 .6.2-.9.7-.9 1-1.7.4-.7.7-1.1 1-1.9-.4 0-.9 1.2-1.3 1.3-.4.2-.7-.1-.8-.1.2-.5.3-1.1.6-1.5.6-.5 1.5-4.2 1.5-4.5 0-.8.7-2.9.9-3.5.1-.4-.4-1.8-.2-2.8.1-.3-.3-.6-.5-.6-.4.1-.6 1.8-.6 2.2 0 0 0 .2-.1.4.1.4.2.6.2.7 0 .3-.1 1.1-.2 2.3-.2 1.2-1.1 4.2-1.9 5.2-.7 1-.5.6-1.5 1.3s.9-.1-1.3 1-2.5 1.5-2.6 1.8-.2-1.1.4-1.5c0-.1.1-.2.2-.3l2.5-6.5c.6-2.4.8-5.4.8-5.5.5-3.4-1.5-10.6-1.5-10.6s1.2 7.7.5 11.2c-.2 2-1 6.9-3.7 11.1-.2.3-2.2 3.3-2.3 3.3-.9.4-1.9 3-2.4 2.9-.3-.4 0-1.6.7-2 .5-.3 1.2-.9 1.2-1.5 0-.2.9-2.8 1.2-3.1.3-.4.6-1.7.2-1.8-.3-.1-.6.1-.7.4-.2.6-.9 2.1-1.1 2.1-.6.3-.9.8-1.3 1.2-.2.2-3.1 4.5-3.6 4.5-.3 0-1.9 1.2-2.2 1.5-.2.3-.5.6-.8.9-.1.1-.6.1-.9.2-.1 0-.3 0-.3.1l.1-.1s.6-.6 1.1-1.5l-.3.6c.1-.1.1-.2.2-.3v-.1c.1-.1.1-.3.2-.4v-.1c.1-.1.1-.3.2-.4v-.1c.1-.1.1-.3.2-.4s.1-.2.2-.4c0 0 0-.1.1-.1.3-.6.6-1.2.8-1.8 1.9-4 2.6-6.2 3.6-10.5.3-1.4.8-6.9.8-7.6 0-1.1 0-1.7-.1-2.1-.5-12.2-5.9-19.4-12.2-23.5-.2-.1-.4-.2-.5-.3-.8-.5-1.5-1-2.3-1.4-.5-.3-1.1-.4-1.7-.6-1.1-.4-2.2-.9-3.3-1.4 0 0-.5-.2-1.4-.5l-3.4-.9c-.1 0-.2 0-.2-.1-2.4-.4-4.4-.6-5.7-.6-4.2 0-8.9.3-13.4 1.1-.3.1-.6.2-.9.2-.6.1-1.1.4-1.7.5-1.2.3-2.3.5-3.5.8 0 0-.5.1-1.3.3-.1 0-.1 0-.2.1l-3.2 1.2c-.1 0-.2.1-.3.1h-.1a111.62 111.62 0 0 0-9 3.7c-.2.1-.6.4-.7.4-1.5.7-2.9 1.6-4.4 2.5l4.9 1.6c-.9.4-8.6 2.8-14 4.1-.9.3-1.7.7-2.6.8h0c0-.1.3-.2.4-.3-1 .2-1.8.4-2.4.4-.3 0-.5 0-.6-.1-.6-.7 10.8-16 10.8-16h0l-.1 4.7S59.6 9.9 73 5.6c.2-.1.4-.1.6-.2.1 0 .2-.1.2-.1 1.3-.5 2.7-1 4.1-1.3.3 0 .6-.1.9-.3.6-.3 2.7-.6 3.1-.6 5.7-1.3 11.5-2 17.2-2 .6 0 1.2-.1 1.9-.1h.7c.1-.1.3-.1.4-.1s.3 0 .5.1c.3 0 .5 0 .8.1.2-.1.3-.2.4-.2h.8c.8.2 1.7.4 2.5.5.4.1.8.1 1.1.1 1.4.2 2.8.4 4.2.9.3.1.6.2 1 .2.7 0 1.3.2 1.9.5.3.2.7.3 1 .5 7.6 2.5 14.7 6.9 20.8 13.8l1.1 1.4c.1.1.2.3.4.6l.1.1s0 .1.1.1c0 .1.1.2.2.2 1.8 2.7 5.9 10.3 5.5 20 .5 2.1.5 3.4.3 5.1zm-9.5-26.1h0c1.8 1.9 3.5 4.1 4.9 6.6.3.6.7 1.1 1 1.7-.4-1.4-1-2.7-1.6-4-.9-1.7-1.9-3.3-3.1-4.7h0c-1.8-2.2-3.6-3.9-5-5-2.2-1.8-5.4-3.8-8.6-5-.1 0 6.8 4.5 10 7.8.8.9 1.6 1.8 2.4 2.6h0zM67 9.8c-3 1.3-9.4 4.6-11.2 6.3 2-1.1 8.8-4.6 11.5-5.7C73.7 7.8 78 6.3 80.2 5.6c-3.9.6-9.5 2.6-13.2 4.2z" fill="url(#B)"/><path d="M9.9 58.3c2.5-4.3 4.5-7.4 6.2-9.4 1.6-2 3.4-3.6 5.3-4.9s4.1-2.3 6.4-2.9 5-.9 7.9-.9h10L42.3 46H31.7c-2.8 0-5.3.6-7.3 1.9s-3.9 3.4-5.6 6.2h18.7L34.2 60H15.5L7.6 73.8H1l8.9-15.5zm40.9-18.1H65c2.4 0 4.2.1 5.5.4s2.2.7 2.7 1.3c.8 1 1.2 2.2 1 3.8s-.9 3.4-2.1 5.4a30.67 30.67 0 0 1-3.9 5.2c-1.4 1.4-3 2.6-4.8 3.6-1.5.8-2.9 1.3-4.5 1.7-1.5.3-3.6.5-6.3.5h-7.9L38 73.8h-6.5l19.3-33.6zm10.7 6h-7.6l-5.7 9.9h8c2 0 3.7-.4 5.1-1.2s2.6-2.1 3.6-3.7c1-1.8 1.3-3.1.8-3.8-.6-.8-1.9-1.2-4.2-1.2zm45.1 0H90.5c-1.7 0-3.2.3-4.4 1S83.8 49 83 50.5c-.7 1.2-.9 2.1-.5 2.7.3.6 1.2.9 2.6.9h8.6c3.6 0 5.7.7 6.4 2.2s0 3.9-1.9 7.3c-2 3.5-4.3 6-7 7.6s-5.9 2.4-9.6 2.4H64l3.5-6h16.4c1.9 0 3.3-.3 4.4-.9s2-1.6 2.8-2.9c.8-1.4 1-2.4.7-3-.4-.6-1.4-.9-3.1-.9H81c-3.6 0-5.7-.8-6.5-2.3s-.2-4 1.7-7.3c2.1-3.6 4.4-6.2 7.1-7.8S89.2 40 93 40h17.1l-3.5 6.2z" fill="#575756"/></svg>