<svg xmlns="http://www.w3.org/2000/svg" viewBox="0 0 10240 10240" height="1024" width="1024"  cursor="move" xmlns:v="https://vecta.io/nano"><path d="M0 5120V0h10240v10240H0V5120z" fill="#db0011"/><path d="M0 9828c0-227 4-408 8-403 5 6 14 34 20 63 35 159 123 312 257 447 142 143 315 245 471 276 35 7 61 16 58 21-3 4-187 8-410 8H0v-412zm9400 403c0-4 22-11 49-14 61-7 196-60 297-118 102-57 270-222 337-330 67-109 137-290 137-357 0-13 4-20 10-17 6 4 10 157 10 426v419h-420c-231 0-420-4-420-9zM3120 8580c-181-11-275-52-395-174-85-85-133-164-174-283-51-153-51-136-51-1552V4664c0-626 4-705 51-929 161-768 676-1432 1389-1789 512-257 1070-335 1660-231 148 25 347 81 437 121 17 8 35 14 41 14 13 0 151 62 246 111 528 271 945 718 1204 1289 95 209 178 541 199 795 15 168 8 438-13 575-93 600-331 1076-744 1490-154 154-288 259-521 406-63 39-255 133-359 174-228 91-437 142-715 174-22 3-359 8-750 12l-714 10c-10 9-11 49-11 444-1 514-10 668-45 775-93 284-291 444-595 479-14 2-77 0-140-4zm223-180c43-10 98-32 125-47 74-42 153-130 194-214 64-128 66-152 73-780 4-343 10-574 17-591 5-14 22-31 36-37 17-6 298-12 757-16l775-10c366-39 618-112 930-271 512-261 941-735 1153-1274 160-406 208-833 142-1258-118-760-600-1429-1286-1786-510-265-1061-345-1622-235-758 149-1412 656-1741 1350-127 267-179 449-226 784-11 80-12 1812-1 3110l7 850 27 80c64 192 193 324 347 354 82 16 212 12 293-9zm-206-452l-24-24 1-3824c3-14 12-67 20-118 109-676 598-1266 1257-1517 421-161 907-169 1344-23 643 215 1136 754 1299 1419 41 169 55 303 51 504-4 188-18 301-60 467-174 685-724 1237-1418 1423-228 62-298 65-1157 65l-967 6-213 7v792c0 888 5 829-72 841-30 5-41 2-61-18zm1312-1788c842-1 911-5 1156-75 201-57 431-172 590-294 294-226 518-535 634-876 73-214 98-383 95-622-6-359-102-667-304-973-292-440-748-726-1287-805-155-23-425-14-586 19-408 84-771 294-1034 600-158 184-283 402-354 617-51 155-66 225-85 387-14 121-16 245-9 1077l10 945c2 3 104 4 227 3 122-2 549-3 947-3zm-689-466c-15-7-30-19-34-29-3-9-8-342-11-738-4-680-3-728 15-827 54-297 169-520 380-731 211-212 429-330 723-390 114-23 340-27 467-9 574 82 1036 517 1157 1090 25 119 25 410 0 530-119 561-533 969-1103 1086-87 18-306 23-1118 27-318 1-457-1-476-9zm1590-182c242-59 440-165 597-320 261-256 387-570 370-922-11-235-68-405-204-612-71-107-219-257-323-328-257-174-601-250-896-197-269 48-472 154-664 347-176 175-273 349-333 593-22 91-22 97-19 772l2 688c0 5 312 6 693 4 659-4 696-5 777-25zm-576-430c-321-2-363-4-375-19-11-13-15-93-17-394-4-418 2-483 59-629 117-303 447-502 764-462 236 30 415 138 539 325 70 107 103 193 122 319 18 120 8 221-33 348-92 282-356 491-648 512-27 1-213 2-411 0zm454-133c132-24 244-82 335-174 119-120 177-253 185-420 3-70-1-120-12-167-81-345-429-560-761-469-186 51-331 175-413 354-53 114-59 183-54 635l2 252h331c181-1 356-5 387-11zm4999-4086c-4-3-7-21-7-39 0-44-53-204-91-272-109-198-265-354-447-446-69-35-225-86-263-86-16 0-29-4-29-10 0-7 148-10 425-10h425l-3 870c-2 0-7-3-10-7zM0 418V0h415c270 0 415 3 415 10 0 6-12 10-26 10-40 0-201 57-274 97C340 221 188 378 94 570c-36 73-74 183-74 214 0 12-5 28-10 36C4 830 0 691 0 418z" fill="#fff"/></svg>