<svg xmlns="http://www.w3.org/2000/svg" viewBox="0 0 10240 10240" height="1024" width="1024"  cursor="move" xmlns:v="https://vecta.io/nano"><defs><linearGradient y2="83.59375%" x2="108.30078%" y1="15.8203125%" x1="-9.082031%" gradientUnits="userSpaceOnUse" id="A"><stop offset="0%" stop-color="#000"/><stop offset="1%" stop-color="#0097d8"/><stop offset="100%" stop-color="#002f87"/></linearGradient></defs><g fill="url(#A)"><path d="M0 5120V0h10240v10240H0V5120z"/><path d="M0 5120V0h10240v4780h-25c-16 0-25 6-25 15s-9 15-24 15c-17 0-28 9-38 30-7 17-19 30-25 30-7 0-13 7-13 15s-13 21-30 30c-16 9-30 22-30 30s-5 15-11 15c-14 0-59 47-59 61 0 5-11 14-25 19s-25 15-25 22c0 16-64 68-82 68-8 0-20 6-26 12-10 10-17 10-32 0-24-14-90-16-90-2 0 6-7 10-15 10-29 0-95 49-95 70 0 6-20 25-45 42-25 18-45 38-45 45s-4 13-9 13-11 9-14 20-12 20-21 20c-16 0-66 45-66 60 0 13-92 100-106 100-7 0-14 12-16 28-2 17-12 31-26 37-34 14-25 43 47 152 34 51 61 98 61 105 0 6 9 21 20 33s22 41 26 66c5 41 3 45-25 64-17 11-31 25-31 31 0 7-7 14-15 18-8 3-15 12-15 19 0 14-65 64-102 79-10 4-18 12-18 18s-15 26-32 44c-18 17-53 53-77 79s-47 47-52 47-9 6-9 14-7 16-15 20c-8 3-15 12-15 19 0 14-65 64-102 79-10 4-18 13-18 20 0 8-8 21-17 29-10 9-39 38-65 65l-82 83c-20 19-36 42-36 52 0 11-5 19-12 19-6 0-26 11-44 25s-38 25-44 25-13 8-17 18c-3 9-20 31-37 48s-45 46-63 65c-17 19-47 49-67 68s-36 42-36 52c0 11-5 19-12 19-6 0-25 10-42 23s-39 26-48 30c-10 3-18 12-18 19s-39 51-85 97c-47 46-85 87-85 92 0 4-7 9-15 13-8 3-15 13-15 23 0 11-16 25-40 37-22 11-40 23-40 27s-9 11-20 14-20 12-20 18c0 7-39 50-85 96-47 46-85 87-85 92 0 4-7 9-15 13-8 3-15 13-15 23 0 11-16 25-40 37-22 11-40 23-40 27s-9 11-20 14-20 11-20 17-15 26-32 43c-18 18-53 54-77 79s-47 46-52 46-9 6-9 14-7 16-15 20c-8 3-15 13-15 23 0 11-16 25-40 37-22 11-40 23-40 27s-9 11-20 14-20 11-20 17-25 35-55 65-55 57-55 61-14 16-30 27-30 25-30 31c0 7-7 14-15 18-8 3-15 13-15 23 0 11-16 25-40 37-22 11-40 23-40 27s-9 11-20 14-20 11-20 17-25 35-55 65-55 57-55 61-14 16-30 27-30 25-30 31c0 7-7 14-15 18-8 3-15 13-15 23 0 11-16 25-40 37-22 11-40 23-40 27s-9 11-20 14-20 11-20 17-25 35-55 65-55 57-55 61-14 16-30 27-30 25-30 31c0 7-7 14-15 18-8 3-15 13-15 23 0 11-16 25-40 37-22 11-40 23-40 27s-9 11-20 14-20 11-20 17-25 35-55 65-55 57-55 61-14 16-30 27-30 25-30 31c0 7-7 14-15 18-8 3-15 13-15 23 0 11-16 25-40 37-22 11-40 23-40 27s-9 11-20 14-20 11-20 17-25 35-55 65-55 57-55 61-14 16-30 27-30 25-30 31c0 7-7 14-15 18-8 3-15 13-15 23 0 11-16 25-40 37-22 11-40 23-40 27s-9 11-20 14-20 11-20 17-25 35-55 65-55 57-55 61-14 16-30 27-30 25-30 31c0 7-7 14-15 18-8 3-15 15-15 26s-7 20-15 20-33 18-56 40c-49 47-55 46-168-12-102-51-137-51-180 2-17 22-38 40-46 40s-15 4-15 9-8 12-18 15c-10 4-25 23-33 42-9 24-23 40-41 46-16 6-28 15-28 21 0 7-15 19-33 28-22 11-33 24-35 42l-3 27H0V5120z"/></g><g fill="#0067b1"><path fill="url(#A)" d="M0 5120V0h10240v890h-23c-13 0-34 11-47 25s-32 25-43 25c-10 0-21 9-24 20s-12 20-19 20c-8 0-14 9-14 19 0 11-13 28-30 38-16 9-30 21-30 25s-19 26-42 49c-23 22-47 50-53 62-6 13-19 21-30 20-14-2-25 7-35 30-9 20-24 33-38 35-13 2-26 11-29 20-4 9-12 21-20 25-7 4-13 14-13 21 0 8-12 22-28 32-15 10-36 29-47 43s-31 36-44 49c-13 12-29 32-36 45-7 14-18 21-32 19-17-2-23 4-28 29l-7 32-104-5c-88-4-106-2-119 12-8 9-15 21-15 27s-8 14-17 17c-46 16-95 55-111 87-7 14-30 38-49 55-72 58-127 120-139 156-3 9-13 19-22 22-34 13-72 37-72 47 0 5-5 9-11 9s-17 7-25 15c-9 8-26 15-39 15s-27 4-30 10c-3 5-25 7-50 3-31-4-45-2-45 6 0 6-9 11-19 11-11 0-29 15-41 36-12 19-33 42-46 51-13 8-24 21-24 28 0 6-18 20-40 31-22 10-43 27-46 37-3 9-12 17-20 17s-14 5-14 10c0 6-7 10-15 10s-15 9-15 20c0 12-7 20-18 20-10 0-37 29-67 74-28 41-58 77-67 79-10 3-18 11-18 19 0 7-16 22-36 33-21 11-50 32-67 47-16 16-33 28-38 28s-9 6-9 14-13 24-30 36c-16 12-30 28-30 36s-4 14-9 14-22 20-37 44c-16 25-36 47-46 49-10 3-18 12-18 21s-4 16-9 16-17 7-26 16c-12 12-40 16-128 17-108 2-112 3-115 25-2 12-19 34-38 48-19 15-34 33-34 40 0 8-7 14-16 14-14 0-14 3-4 15 20 24 34 17 55-28 13-28 27-43 43-45 12-2 22-7 22-12 0-17 110-10 142 10 33 20 58 17 58-7 0-10 7-14 20-10 11 3 20 1 20-4s6-9 14-9 12-8 9-23c-3-17 3-25 26-35 17-8 31-20 31-28s7-14 15-14 15-9 15-20 7-20 15-20c35 0 100-52 122-97 8-18 19-33 24-33s9-9 9-19c0-20 18-31 50-31 13 0 17-5 13-20-4-16 1-23 26-33 17-6 31-17 31-24s9-13 19-13c14 0 18-5 14-20-6-23 5-25 41-7l25 14-23 20c-13 11-29 34-37 52-8 17-20 31-27 31s-15 7-18 15c-4 8-15 15-25 15-11 0-22 7-25 15-4 8-11 15-18 15-6 0-20 20-32 43s-34 48-49 56c-15 7-30 22-32 32-3 11-10 19-17 19-22 1-64 47-85 95-5 12-25 29-45 40s-36 27-36 37c0 11-8 18-20 18-11 0-20 5-20 11 0 8-22 10-72 6-90-6-122 7-163 68-16 25-37 47-46 50s-19 15-22 25c-3 11-12 20-21 20s-16 5-16 10c0 6-8 10-17 10-20 1-72 64-74 89-1 9-4 5-8-9-8-29-39-39-46-16-16 52-16 51-25 37-5-9-10 15-14 65-4 43-9 93-12 111-4 25-1 33 16 38 11 3 20 13 20 21s3 13 8 13c24-4 40 3 45 21 3 13 10 18 21 14 10-4 16-1 16 10 0 9 6 13 15 10 9-4 17 1 21 12 10 28 35 54 46 48 5-3 15-1 22 5 11 9 15 6 19-11 6-21 7-21 26-4 11 10 26 35 32 54 7 20 22 47 35 61 26 28 29 37 14 46-6 3-10 11-10 16 0 6 4 7 10 4 10-6 42 56 77 147 10 27 21 48 25 48s10 17 14 38c4 20 10 42 14 47 21 26 59 295 59 415 1 206-51 512-128 763-178 574-529 977-1028 1178-270 109-514 154-923 170-151 5-291 14-310 19-47 12-115 72-141 121-22 45-31 92-99 524l-110 695c-51 328-61 362-132 425-80 73-48 70-695 73l-582 3-42-28c-23-15-50-32-60-38-13-6-17-16-13-32 5-18 2-23-12-24-11 0-14-3-6-6 14-6 17-93 2-93-5 0-10-7-10-15a15.4 15.4 0 0 1 15-15 15.4 15.4 0 0 0 15-15c0-8-4-15-10-15-5 0-10-9-10-20s7-20 15-20a15.4 15.4 0 0 0 15-15c0-8-4-15-10-15-5 0-10-7-10-15a15.4 15.4 0 0 1 15-15 15.4 15.4 0 0 0 15-15c0-8-4-15-10-15-5 0-10-9-10-20s7-20 15-20 15-4 15-10c0-5-4-10-10-10-5 0-10-9-10-20s7-20 15-20a15.4 15.4 0 0 0 15-15c0-8-4-15-10-15-5 0-10-8-10-18s-7-27-15-38c-8-10-15-23-15-29 0-5 7 1 16 13 8 12 23 22 32 21 10 0 12-3 4-6-17-7-15-33 3-33a15.4 15.4 0 0 0 15-15c0-8-4-15-10-15-5 0-10-11-10-25 0-16 6-25 16-25 14 0 14-2 0-15-12-13-58-15-287-15l-268 4c2 2 72 6 154 10 251 11 317 17 301 30-8 6-16 35-18 64-6 59-29 93-59 85-14-4-19 0-19 15 0 12-9 26-20 32s-20 17-20 25-4 15-9 15-18 14-29 31c-18 29-47 51-84 65-10 3-20 21-24 39-5 26-12 34-34 39-16 3-31 14-35 25-3 11-16 21-28 23-15 2-29 17-42 45-11 24-23 43-28 43-7 0-24-8-146-70-42-21-80-45-238-151-78-52-130-65-120-30 3 14-5 26-29 43-19 13-34 26-34 31 0 4-4 7-9 7-9 0-101 89-101 98 0 3-7 12-15 21l-44 49c-17 17-37 32-46 32-8 0-15 8-15 18 0 9-16 31-36 47l-50 43c-7 6-17 12-22 12s-17 10-25 23c-9 12-34 42-57 66-36 40-42 52-52 120-6 42-14 80-19 86-5 5-9 16-9 25 0 8-9 21-20 28s-20 19-20 26c0 8-9 18-20 21s-20 15-20 26-7 19-16 19c-17 0-54 36-54 52 0 4-7 8-15 8s-15 6-15 14c0 19-50 66-71 66-10 0-23 13-30 29s-25 36-40 45-31 25-34 36c-3 10-15 22-26 25-10 4-19 15-19 26 0 10-4 19-10 19-19 0-50 34-50 55 0 11 7 33 15 48 23 45 4 122-41 164-20 18-40 33-44 33-12 0-60 60-60 75 0 8-9 16-20 20-11 3-35 24-53 46-19 21-39 39-45 39s-16 14-24 30c-7 17-19 30-25 30-7 0-13 6-13 13 0 8-11 19-25 25-14 7-28 19-31 27-4 8-12 15-20 15-14 0-64 60-64 78 0 7-6 12-14 12s-32 20-54 45-44 45-50 45-16 14-24 30c-7 17-19 30-25 30-7 0-13 6-13 13 0 8-11 19-25 25-18 8-29 25-37 57l-12 45H0V5120z"/><path d="M2515 8367c-9-22 3-87 15-87 6 0 10-9 10-20s7-20 15-20a15.4 15.4 0 0 0 15-15 15.4 15.4 0 0 1 15-15c8 0 19-9 26-21 7-14 17-19 30-16 11 3 19 0 19-8 0-13 30-25 63-25 26 0 20 29-9 40-14 6-28 19-31 30s-14 22-24 25c-10 4-19 15-19 26 0 10-7 19-15 19-19 0-55 31-55 47 0 7-6 13-13 13-8 0-19 10-24 23-10 20-12 20-18 4zm1110-587c-3-5 3-10 14-10 12 0 21 5 21 10 0 6-6 10-14 10s-18-4-21-10zm3747-4385c0-16 3-39 8-50l9-20-1 20c0 11-4 34-8 50l-8 30v-30z"/></g><g fill="#0075bb"><path fill="url(#A)" d="M3700 8448c-38-27-70-81-70-120 0-15 9-87 21-159 11-72 19-140 16-150s-2-19 2-19c5 0 16-48 25-107l23-130 5-23h-656c-585 0-661-2-689-16-87-44-127-126-109-223 6-31 16-87 22-126l40-247c5-38 15-98 20-135l141-886c12-63 11-127-1-127-17 0-11-17 8-22 14-4 20-18 25-59l17-119 38-243c7-46 6-60-5-64-19-7-16-20 7-26 17-4 20-14 20-56 0-28-4-51-10-51-18 0-10-18 10-23 17-4 20-14 20-56 0-34-4-51-12-52-7 0-4-4 8-9 18-7 22-20 28-81 5-54 3-75-6-81-10-6-8-8 5-8s17-8 17-35c0-19-4-35-10-35-5 0-10-4-10-10 0-5 7-10 15-10 18 0 20-26 3-33-8-3-6-6 5-6 13-1 17-10 17-36 0-19-4-35-10-35-18 0-10-18 10-23 25-6 26-24 3-30-17-4-17-5 0-6 13-1 17-10 17-36 0-19-4-35-10-35-5 0-10-4-10-10 0-5 9-10 20-10s20-7 20-15a15.4 15.4 0 0 0-15-15c-8 0-15-4-15-10 0-5 7-10 15-10 9 0 15-9 15-25 0-14-4-25-10-25-5 0-10-7-10-15s9-15 20-15c17 0 20-7 20-50 0-27-4-50-10-50-18 0-11-30 8-31 10 0 12-3 5-6-18-7-16-33 2-33 10 0 15-10 15-30 0-16-4-30-10-30-18 0-11-30 8-31 10 0 12-3 5-6-18-7-16-43 2-43 9 0 15-9 15-25s-6-25-15-25c-8 0-15 3-16 8 0 4-2 16-4 27l-10 59c-3 21-8 43-12 49-3 6-8 32-10 60-3 44-32 122-33 90 0-7-11-13-25-13-20 0-25 6-31 38-3 20-15 55-25 78-10 22-19 48-19 57 0 11-8 17-25 17-16 0-25 6-25 15 0 8-5 15-10 15-11 0-62 44-112 98-17 17-37 32-44 32s-23 15-35 33c-13 17-33 42-46 54s-23 33-23 47-4 28-10 31c-5 3-10 17-10 31 0 26-21 69-57 121-13 17-23 39-23 50 0 10-11 27-25 37s-25 25-25 32c0 8-6 14-12 14-7 1-22 13-33 28-11 14-44 50-72 79-29 29-53 59-53 68s-9 15-21 15-23 8-26 19c-5 20-31 36-42 26-3-3 0-10 7-14 18-11 52-77 52-100 0-10 6-24 14-30s17-25 20-41c3-17 9-45 12-62 4-18 13-42 20-53 8-11 14-27 14-37s7-18 15-18a15.4 15.4 0 0 0 15-15c0-9 12-18 30-21 18-4 30-13 30-23 0-9 9-27 20-41s20-37 20-52c0-16 5-28 10-28 6 0 10-8 10-17 0-10 7-27 15-37 8-11 15-28 15-38 0-16-3-17-20-8-11 6-20 18-20 26 0 20-24 44-44 44-9 0-16 7-16 15s-6 15-14 15-16 7-20 15c-3 9-18 15-36 15-30 0-30 0-30 55 0 30-4 55-10 55-5 0-10 8-10 17 0 25-31 103-41 103-5 0-9 10-9 21 0 28-36 86-75 122l-60 57c-16 17-34 30-39 30-11 0-51 43-59 64-4 9-13 16-21 16s-30 21-47 48c-18 26-51 64-73 84l-71 66c-16 16-38 32-47 35-26 9-46 47-64 122-31 131-38 155-46 155-4 0-8 8-8 18 0 34-30 82-51 82-11 0-23 9-27 20-4 10-32 37-62 60-58 42-170 156-170 172 0 18-42 63-63 68-13 4-23 15-25 28-2 15-10 22-27 22-13 0-25 8-29 18-7 21-28 55-40 63-5 4-6 14-3 23 4 9 2 16-3 16-6 0-10 15-10 33-1 53-23 121-49 147-12 14-30 35-38 48-9 12-20 22-27 22-6 0-18 15-27 33-9 17-24 37-35 42-11 6-29 20-42 33-12 12-28 22-35 22-18 0-57 42-57 61 0 8-12 22-28 32-15 11-40 36-56 58-17 21-36 39-43 39s-13 5-13 11-15 32-34 58c-30 41-34 54-38 123-3 68-6 79-31 102-15 14-27 32-27 41a15.4 15.4 0 0 1-15 15c-8 0-15 9-15 20 0 13-7 20-20 20-12 0-20 7-20 16s-9 18-20 21-20 13-21 22c-1 20-65 75-79 66-7-4-10-1237-10-3866V0l7710 10c0 5-9 15-20 22s-20 17-20 23-9 16-20 23c-12 7-25 24-30 37-5 14-16 25-24 25s-29 13-47 30c-18 16-36 27-41 24-11-7-109 15-125 28-7 5-26 7-43 3-34-7-66 15-56 40 4 11-1 15-17 15-23 0-77 58-77 82 0 7-14 22-30 33s-30 23-30 28c0 4-7 7-15 7-9 0-18 6-21 14s-16 17-30 20c-13 4-24 12-24 19 0 8-18 29-41 47-27 23-39 40-36 52 4 13-1 18-17 18-15 0-34 15-56 45-19 25-42 45-51 45-10 0-22 6-26 13-7 12-82 32-160 44-17 3-41 14-52 24s-24 19-29 19-18 12-28 28c-10 15-42 50-70 79-28 28-54 58-57 67-4 9-18 16-32 16s-25 5-25 10c0 6-20 30-45 54-25 25-45 49-45 55s-6 11-14 11c-7 0-22 12-32 27-29 41-86 97-112 110-13 7-38 13-54 13-35 0-116 18-140 31-10 5-25 9-33 9-9 0-56 40-106 90-50 49-95 90-100 90s-9 9-9 20c0 12-13 28-31 39-17 10-37 28-46 40-8 12-26 26-39 31-27 11-32 35-8 44 32 12 0 26-62 26-49 0-64 3-64 14 0 8 12 17 28 19 15 2 4 5-28 7-74 3-115 13-109 25 2 6-67 12-191 16-322 11-490 21-490 30 0 5 243 9 540 9 353 0 540-3 540-10 0-5 11-10 25-10 16 0 25 6 25 15 0 18 50 21 50 3 1-8 6-6 14 5 10 12 27 17 65 17 28 0 51-4 51-10 0-16 28-11 38 7 6 10 16 14 26 10 9-4 16-2 16 4 0 7 16 10 40 7 22-2 40 0 40 5s9 7 20 4 20-1 20 5 17 8 40 6c22-2 41 0 43 5 3 9 217 68 257 70 14 1 30 8 35 14 6 7 21 14 35 15 14 2 27 6 30 9s43 24 90 46c92 45 220 125 270 170 18 15 37 28 42 28 6 0 14 8 17 18 4 10 11 18 15 17 5-1 14 8 20 18 6 11 36 51 66 88 134 166 207 321 252 539 17 81 17 472 0 544-9 40-9 57-1 67 6 8 15 12 19 9 5-3 10-2 12 3 1 4 21 19 43 32 164 100 321 297 390 488 60 168 69 229 69 487 0 255-7 318-60 548-160 690-525 1154-1081 1378-274 111-533 156-948 168-299 9-318 13-389 92-56 62-64 94-121 459l-171 1078c-18 83-54 139-123 187l-43 30-1214 5-34-22zm-900-4297c0-5-9-11-20-14-13-3-20 0-20 9 0 8 9 14 20 14s20-4 20-9zm0-61c0-11-7-20-15-20s-15 9-15 20 7 20 15 20 15-9 15-20zm4-58c-6-4-14-14-17-22-4-10-6-8-6 8-1 15 5 22 17 22 10 0 13-3 6-8zm16-77a15.4 15.4 0 0 0-15-15 15.4 15.4 0 0 0-15 15 15.4 15.4 0 0 0 15 15 15.4 15.4 0 0 0 15-15zm10-54c0-5-7-11-15-15-9-3-15 0-15 9a15.4 15.4 0 0 0 15 15c8 0 15-4 15-9zm1770-2111c0-5-9-10-20-10s-20 5-20 10c0 6 9 10 20 10s20-4 20-10z"/><path d="M1374 6096c2-37 9-73 15-79s11-21 11-34c0-12 9-27 20-33s20-19 20-29 11-24 25-31 25-17 25-21c0-12 156-169 168-169 6 0 13-6 15-12 3-8 6-6 6 5 1 11-6 17-19 17-11 0-20 7-20 15s-4 15-10 15c-5 0-10 9-10 19 0 22-49 81-67 81-16 0-63 44-63 59 0 6-4 11-10 11-16 0-60 54-60 74 0 10-7 24-16 31-11 8-18 31-20 75-2 35-6 66-9 68-3 3-4-25-1-62zm1296-1524c0-11 4-23 9-27 6-3 8 4 6 16-6 30-15 37-15 11zm2815-2862c-4-6 5-10 20-10s24 4 20 10c-3 6-12 10-20 10s-17-4-20-10zm60 0c-4-6 13-10 44-10 28 0 51 5 51 10 0 6-20 10-44 10-25 0-48-4-51-10zm165-63c0-13 5-28 12-35 15-15 48-16 48-2 0 6-11 10-25 10-27 0-33 18-13 38 9 9 8 12-5 12-11 0-17-8-17-23zm74-83c6-13 17-24 24-24 6 0 12-4 12-10 0-5 6-10 14-10s18-9 21-20 11-20 16-20 9-8 9-18a42.3 42.3 0 0 1 42-42c10 0 32-15 48-34 26-29 41-36 119-51 49-9 95-15 103-12 7 3 1 6-14 6-14 1-28 6-30 13-3 7-22 11-46 10-31-1-42 2-42 13 0 10-10 15-32 15-35 1-68 19-68 39 0 6-9 11-20 11s-20 7-20 15-4 15-10 15c-5 0-10 7-10 16s-8 24-18 33-21 24-25 34-17 17-32 17c-14 0-25 4-25 9s-6 11-14 14c-11 4-11 1-2-19z"/></g><g fill="#0088cb"><path d="M3700 8448c-38-27-70-81-70-120 0-15 9-87 21-159 11-72 19-140 16-150s-2-19 2-19c5 0 16-48 25-107l23-130 5-23h-656c-585 0-661-2-689-16-87-44-127-126-109-223 6-31 16-87 22-126l40-247c5-38 15-98 20-135l140-885c5-38 15-97 20-133l79-507 81-511c5-37 15-97 20-135l381-2422c6-41 15-97 20-123 12-63 11-117-1-117-5 0-10-4-10-10 0-5 7-10 15-10s17-12 20-27c18-93 31-132 51-163 26-38 31-60 12-60-6 0-3-9 7-20 13-14 29-20 49-18 22 2 31-1 31-12 0-22 17-31 48-24 21 4 27 2 27-11s6-16 23-11c30 8 2346 8 2359 0 6-4 14-1 18 6 6 10 39 14 114 14 58 1 106 4 106 8 0 3 19 9 43 13 148 22 193 30 287 52 377 91 624 234 814 473 132 165 203 320 248 535 17 82 17 472 0 545-15 63-23 50 88 123 166 107 307 286 375 475 60 168 69 229 69 487 0 255-7 318-60 548-160 690-525 1154-1081 1378-274 111-533 156-948 168-299 9-318 13-389 92-56 62-64 94-121 459l-171 1078c-18 83-54 139-123 187l-43 30-1214 5-34-22z"/><path fill="url(#A)" d="M0 2203V0l4370 15c0 8-4 15-9 15-14 0-71 53-71 66 0 7-10 14-22 18-13 3-38 28-57 56-19 27-49 62-68 76-18 14-33 31-33 39 0 7-13 18-30 24-16 5-30 17-30 26s-8 19-17 22c-24 9-63 45-63 59 0 7-15 15-34 18-20 4-36 14-38 24-3 10-38 38-79 62-41 25-80 50-86 56-7 7-26 15-42 19-16 3-31 14-34 24-2 9-21 25-41 35-20 9-50 30-67 47-16 16-35 29-42 29-16 1-57 36-57 49 0 6-8 11-17 11-24 1-63 34-63 54 0 9-16 24-35 33-22 11-38 27-42 42-8 31-29 53-65 69-16 6-28 17-28 24s-16 28-35 45c-19 18-35 37-35 43 0 5-8 10-17 10-24 1-63 34-63 54 0 9-16 24-35 33-22 11-38 27-42 42-7 30-27 51-65 70-16 8-28 19-28 24 0 10-86 97-96 97-11 0-54 50-54 63 0 7-15 19-34 25-22 8-38 23-45 40-15 40-33 58-64 66-15 3-31 14-34 24-4 9-11 22-15 27-36 44-65 71-92 86-17 9-33 26-36 38-3 11-21 29-40 39-19 9-37 26-40 37-9 36-34 62-68 69-22 5-32 13-32 27 0 10-4 19-10 19-5 0-10 6-10 13 0 15-44 57-60 57-14 0-60 49-60 65 0 8-15 21-34 29-20 8-37 25-44 42-17 44-34 61-70 68-18 5-32 14-32 23 0 8-6 20-12 28-7 7-24 27-38 44s-30 31-37 31-13 4-13 9-9 12-19 16c-12 3-21 17-23 32-2 19-12 28-38 37-20 6-36 19-40 31-9 36-42 75-62 75-11 0-22 9-25 20s-12 20-19 20c-8 0-14 6-14 13 0 13-53 67-67 67-18 1-51 38-55 61-2 14-11 25-23 27-23 5-44 26-65 65-8 16-29 35-47 42-18 8-33 19-33 26 0 13-83 99-96 99-18 1-54 39-54 57 0 13-12 23-35 32-24 8-37 20-42 39-8 32-28 54-65 70-16 6-28 17-28 23 0 14-83 99-97 99-13 0-53 44-53 58 0 20-31 62-45 62-7 0-15 8-18 18-10 29-58 106-83 133-13 14-24 33-24 42 0 10-9 27-20 39s-20 29-20 39c0 9-11 27-25 40-13 13-25 32-25 42 0 9-4 17-10 17-5 0-10 5-10 11s-11 20-25 31-25 27-25 37-11 27-25 39-25 31-25 42c0 16-5 19-23 15-18-5-29 2-55 34-18 23-39 41-47 41s-15 6-15 13c-1 18-51 70-83 87-18 9-30 25-34 43-3 17-16 33-30 40-13 6-27 24-31 41-7 25-13 30-31 28-16-3-32 6-52 30l-28 33-1-2202z"/></g><path d="M3715 8458c-36-20-75-71-81-106-6-28 61-499 83-589l5-23h-656c-585 0-661-2-689-16-87-44-127-126-109-223 6-31 16-87 22-126l40-247c5-38 15-98 20-135l140-885c5-38 15-97 20-133l79-507 81-511c5-37 15-97 20-135l380-2415c5-37 15-96 20-132 26-172 32-203 42-245 23-91 101-175 196-210 51-20 81-20 1175-20 1127 0 1312 5 1532 39l105 16c59 9 240 53 310 75 286 92 494 228 654 430 132 165 203 320 248 535 17 82 17 472 0 545-15 63-23 50 88 123 166 107 307 286 375 475 60 168 69 229 69 487 0 255-7 318-60 548-130 558-384 956-779 1220-38 26-79 47-90 47-27 1-111 46-105 56 7 12-171 84-300 122-224 66-413 91-755 101-299 9-318 13-389 92-56 62-64 94-121 459l-171 1078c-18 83-54 139-123 187l-43 30-606 2c-440 2-613 0-627-9z" fill="#acc9e2"/><path d="M2375 7723c-86-45-125-126-107-222 6-31 16-87 22-126l40-247c5-38 15-98 20-135l140-885c5-38 15-97 20-133l240-1530 20-125 220-1403c5-37 15-97 20-135l80-507c26-172 32-203 42-245 23-91 101-175 196-210 51-20 81-20 1175-20 1127 0 1312 5 1532 39l105 16c59 9 240 53 310 75 286 92 494 228 654 430 131 165 206 326 246 530 29 148 20 526-14 603-8 18-26 92-41 166-129 648-439 1154-895 1458-296 197-614 303-1095 364-49 6-310 14-580 18-483 6-491 6-536 29-51 25-113 82-136 125-13 26-42 175-73 382l-272 1705h-651c-574-1-656-3-682-17z" fill="#e6eff5"/><path d="M2391 7722c-1-7-5-10-11-7-5 3-10 1-10-5s-4-8-10-5c-5 3-10 1-10-5s-4-9-9-6c-15 9-60-51-67-90-9-47-4-93 50-429l141-900c6-47 63-410 80-510l524-3346 63-380c20-92 85-170 178-213 45-21 48-21 1220-20l1330 16c156 17 409 58 465 77l75 22c25 6 54 15 65 19 11 5 33 11 50 15 42 9 236 98 258 118 7 7 30 21 51 32 21 10 55 36 77 57 21 21 43 38 47 38 14 0 113 106 106 113-4 4 0 7 8 7 15 0 33 26 30 43-1 4 5 7 13 7 14 0 19 12 16 33 0 4 5 7 12 7 18 0 88 116 81 135-4 9-1 15 8 15 8 0 29 32 48 71 27 58 31 73 19 80-11 7-11 9 4 9 9 0 17 5 17 10a9.4 9.4 0 0 1-10 10 10.8 10.8 0 0 0-10 10c0 6 6 10 13 10s18 13 24 29c9 24 8 29-3 24-8-3-14 0-14 6s7 11 15 11c15 0 21 35 8 43-5 2-3 3 3 1 7-1 14 10 16 26 3 20 1 27-9 23-7-3-13 0-13 6s7 11 15 11c11 0 15 12 15 45 0 25-4 45-10 45-5 0-10 7-10 15a15.4 15.4 0 0 0 15 15c12 0 15 15 15 75s-3 75-15 75c-10 0-15 10-15 30 0 17 5 30 10 30 6 0 10 20 10 45 0 33-4 45-15 45-19 0-20 26-1 33 18 7 9 47-10 47-8 0-14 5-14 10 0 6 5 10 10 10 6 0 10 5 10 11 0 16-28 8-145-41-168-70-375-116-630-140-76-7-464-12-1055-13-933-2-935-2-981 19-53 25-110 81-135 132-18 39-38 152-133 767l-235 1485c-9 36-33 182-56 325l-79 510-193 1206-649-3c-426-2-650 0-653 7-3 6-5 4-5-3z" fill="#fff"/></svg>