<svg xmlns="http://www.w3.org/2000/svg" viewBox="0 0 1000 1000"  xmlns:v="https://vecta.io/nano"><path d="M186.1 132.5H40.6c-16.9 0-30.6-13.7-30.6-30.6s13.7-30.6 30.6-30.6h145.5c16.9 0 30.6 13.7 30.6 30.6s-13.7 30.6-30.6 30.6h0zm658.4 643.1H346.9c-16.9 0-30.6-13.7-30.6-30.6s13.7-30.6 30.6-30.6h497.7c16.9 0 30.6 13.7 30.6 30.6s-13.8 30.6-30.7 30.6h0zM959.4 255H232c-16.9 0-30.6-13.7-30.6-30.6s13.7-30.6 30.6-30.6h727.3c16.9 0 30.6 13.7 30.6 30.6.1 16.9-13.6 30.6-30.5 30.6h0zm-47.9 183.8H279.9c-16.9 0-30.6-13.7-30.6-30.6s13.7-30.6 30.6-30.6h631.6c16.9 0 30.6 13.7 30.6 30.6 0 16.8-13.7 30.6-30.6 30.6h0zm-44 183.7H327.7c-16.9 0-30.6-13.7-30.6-30.6s13.7-30.6 30.6-30.6h539.8c16.9 0 30.6 13.7 30.6 30.6s-13.7 30.6-30.6 30.6h0zM588 618.7c-16.9 0-30.6-13.7-30.6-30.6V258.8c0-16.9 13.7-30.6 30.6-30.6s30.6 13.7 30.6 30.6V588c.1 17-13.6 30.7-30.6 30.7h0zm210.8-381.9l-39.2 326.9c-2 16.8-17.3 28.8-34.1 26.8s-28.8-17.3-26.8-34L738 229.6c2-16.8 17.3-28.8 34.1-26.8s28.7 17.3 26.7 34h0zm189.5-4.2l-88.3 356c-4 16.4-20.6 26.5-37.1 22.4-16.4-4-26.5-20.6-22.4-37.1l88.3-356c4-16.4 20.6-26.5 37.1-22.4 16.4 4.1 26.4 20.7 22.4 37.1h0zM451.5 595.2c-16.8 2.2-32.1-9.7-34.3-26.5l-39.4-307.6c-2.2-16.8 9.7-32.1 26.5-34.3s32.1 9.7 34.3 26.5L478 560.9c2.1 16.8-9.7 32.1-26.5 34.3h0zm-98.9 173.2c-16.5 4.1-33.1-5.9-37.2-22.3L158 115.5c-4.1-16.4 5.9-33 22.4-37.1s33.1 5.9 37.2 22.3l157.3 630.6c4.1 16.4-5.9 33.1-22.3 37.1h0zm47.9 160.3c-33.8 0-61.2-27.4-61.2-61.2s27.4-61.3 61.2-61.3 61.2 27.4 61.2 61.3c0 33.8-27.4 61.2-61.2 61.2h0zm375.1 0c-33.8 0-61.2-27.4-61.2-61.2s27.4-61.3 61.2-61.3 61.3 27.4 61.3 61.3c0 33.8-27.5 61.2-61.3 61.2h0z"/></svg>