<svg xmlns="http://www.w3.org/2000/svg" viewBox="0 0 1000 1000"  xmlns:v="https://vecta.io/nano"><path d="M475.06 14.89c-6.14 3.07-99.01 93.25-206.07 200.32C58.3 426.66 65.21 418.21 72.12 453.52c3.45 18.8 26.48 41.83 45.28 45.28 34.54 6.52 31.85 8.83 181.9-141.22l139.3-138.54.77 366.87c1.15 363.79 1.15 367.25 9.21 377.61C463.55 983.86 475.83 990 500 990c24.18 0 36.46-6.14 51.42-26.48 8.06-10.36 8.06-13.81 9.21-377.61l.77-366.87 139.3 138.54C850.75 507.63 848.06 505.33 882.6 498.8c18.8-3.46 41.83-26.48 45.28-45.28 6.91-35.31 13.81-26.86-196.86-238.31C619.73 103.92 531.08 17.96 524.18 14.89c-15.35-6.52-34.16-6.52-49.12 0z"/></svg>