<?xml version="1.0" encoding="utf-8"?>
<!-- Svg Vector Icons : http://www.onlinewebfonts.com/icon -->
<!DOCTYPE svg PUBLIC "-//W3C//DTD SVG 1.1//EN" "http://www.w3.org/Graphics/SVG/1.1/DTD/svg11.dtd">
<svg version="1.1" xmlns="http://www.w3.org/2000/svg" xmlns:xlink="http://www.w3.org/1999/xlink" x="0px" y="0px" viewBox="0 0 1000 1000" enable-background="new 0 0 1000 1000" xml:space="preserve">
<metadata> Svg Vector Icons : http://www.onlinewebfonts.com/icon </metadata>
<g><g transform="translate(0.000000,511.000000) scale(0.100000,-0.100000)"><path d="M4750.6,4961.1c-61.4-30.7-990.1-932.5-2060.7-2003.2C583,843.4,652.1,927.9,721.2,574.8C755.7,386.8,986,156.5,1174,122c345.4-65.2,318.5-88.3,1819,1412.2l1393,1385.4l7.7-3668.7c11.5-3637.9,11.5-3672.5,92.1-3776.1c149.7-203.4,272.5-264.8,514.2-264.8c241.8,0,364.6,61.4,514.2,264.8c80.6,103.6,80.6,138.1,92.1,3776.1l7.7,3668.7l1393-1385.4C8507.5,33.7,8480.6,56.7,8826,122c188,34.6,418.3,264.8,452.8,452.8c69.1,353.1,138.1,268.6-1968.6,2383.1C6197.3,4070.8,5310.8,4930.4,5241.8,4961.1C5088.3,5026.3,4900.2,5026.3,4750.6,4961.1z"/></g></g>
</svg>