<svg xmlns="http://www.w3.org/2000/svg" viewBox="0 0 1000 1000"  xmlns:v="https://vecta.io/nano"><path d="M959.2 528.2c-8.2 0-16-3.2-21.8-9L523.6 106.5c-6.6-6.6-15.3-10.2-24.6-10.2s-18 3.6-24.5 10.2L62.8 519.2c-5.8 5.8-13.6 9.1-21.9 9.1-8.2 0-16-3.2-21.8-9s-9-13.6-9.1-21.8c0-8.3 3.2-16 9-21.9L430.8 62.8C449 44.5 473.3 34.5 499 34.5c25.8 0 50 10 68.2 28.3l413.7 412.7c5.8 5.8 9.1 13.6 9.1 21.8s-3.2 16-9 21.8c-5.9 5.9-13.6 9.1-21.8 9.1h0z"/><path d="M959.2 503.2c-1.5 0-3-.6-4.1-1.7L541.3 88.8C530 77.5 515 71.3 499.1 71.3c-16 0-31 6.2-42.2 17.5L45.1 501.5c-2.3 2.3-6 2.3-8.3 0s-2.3-6 0-8.3L448.5 80.4C462 66.9 480 59.5 499.1 59.5s37 7.4 50.5 20.9l413.7 412.7c2.3 2.3 2.3 6 0 8.3-1.1 1.3-2.7 1.8-4.1 1.8h0z"/><path d="M270.5 965.5c-40.8 0-87.9-20.8-120.1-52.9-32.1-32.2-52.9-79.3-52.9-120V431.8c0-17 13.9-30.9 30.9-30.9s30.9 13.9 30.9 30.9v360.7c0 24.4 14.3 55.9 34.8 76.4s51.9 34.8 76.4 34.8h459.1c20.9 0 41.7-11.1 65.5-34.8 19.7-19.8 23.9-52.4 23.9-76.4V431.8c0-17 13.9-30.9 30.9-30.9s30.9 13.9 30.9 30.9v360.7c0 35.6-7.3 85.3-42 120-36.1 36.1-70.8 52.9-109.2 52.9l-459.1.1z"/><path d="M729.6 940.5H270.5c-34 0-75.1-18.3-102.4-45.6s-45.6-68.4-45.6-102.4V431.8c0-3.2 2.6-5.9 5.9-5.9 3.2 0 5.9 2.6 5.9 5.9v360.7c0 31 17 68.8 42.2 94.1 25.2 25.2 63 42.2 94.1 42.2h459.1c28 0 54.4-13.4 83.2-42.2 25.8-25.8 31.2-65.4 31.2-94.1V431.8c0-3.2 2.6-5.9 5.9-5.9s5.9 2.6 5.9 5.9v360.7c0 30.9-6 73.7-34.7 102.4-31.3 31.1-60.3 45.6-91.6 45.6h0z"/><path d="M338 965.5V661.3c0-89.4 72.7-162.1 162.1-162.1s162.1 72.7 162.1 162.1v304.2H338zm262.3-61.8V661.3c0-55.3-45-100.3-100.3-100.3s-100.3 45-100.3 100.3v242.4h200.6z"/><path d="M637.1 940.5H363V661.3c0-75.6 61.5-137.1 137.1-137.1s137.1 61.5 137.1 137.1l-.1 279.2zm-262.4-11.8h250.6V661.3c0-69.1-56.2-125.3-125.3-125.3s-125.3 56.2-125.3 125.3v267.4z"/></svg>