<?xml version="1.0" encoding="utf-8"?>
<!-- Svg Vector Icons : http://www.onlinewebfonts.com/icon -->
<!DOCTYPE svg PUBLIC "-//W3C//DTD SVG 1.1//EN" "http://www.w3.org/Graphics/SVG/1.1/DTD/svg11.dtd">
<svg version="1.1" xmlns="http://www.w3.org/2000/svg" xmlns:xlink="http://www.w3.org/1999/xlink" x="0px" y="0px" viewBox="0 0 1000 1000" enable-background="new 0 0 1000 1000" xml:space="preserve">
<metadata> Svg Vector Icons : http://www.onlinewebfonts.com/icon </metadata>
<g><path d="M959.2,528.2c-8.2,0-16-3.2-21.8-9L523.6,106.5c-6.6-6.6-15.3-10.2-24.6-10.2s-18,3.6-24.5,10.2L62.8,519.2c-5.8,5.8-13.6,9.1-21.9,9.1c-8.2,0-16-3.2-21.8-9c-5.8-5.8-9-13.6-9.1-21.8c0-8.3,3.2-16,9-21.9L430.8,62.8C449,44.5,473.3,34.5,499,34.5c25.8,0,50,10,68.2,28.3l413.7,412.7c5.8,5.8,9.1,13.6,9.1,21.8c0,8.2-3.2,16-9,21.8C975.1,525,967.4,528.2,959.2,528.2L959.2,528.2z"/><path d="M959.2,503.2c-1.5,0-3-0.6-4.1-1.7L541.3,88.8C530,77.5,515,71.3,499.1,71.3c-16,0-31,6.2-42.2,17.5L45.1,501.5c-2.3,2.3-6,2.3-8.3,0c-2.3-2.3-2.3-6,0-8.3L448.5,80.4C462,66.9,480,59.5,499.1,59.5c19.1,0,37,7.4,50.5,20.9l413.7,412.7c2.3,2.3,2.3,6,0,8.3C962.2,502.7,960.6,503.2,959.2,503.2L959.2,503.2z"/><path d="M270.5,965.5c-40.8,0-87.9-20.8-120.1-52.9c-32.1-32.2-52.9-79.3-52.9-120V431.8c0-17,13.9-30.9,30.9-30.9s30.9,13.9,30.9,30.9v360.7c0,24.4,14.3,55.9,34.8,76.4c20.5,20.5,51.9,34.8,76.4,34.8h459.1c20.9,0,41.7-11.1,65.5-34.8c19.7-19.8,23.9-52.4,23.9-76.4V431.8c0-17,13.9-30.9,30.9-30.9s30.9,13.9,30.9,30.9v360.7c0,35.6-7.3,85.3-42,120c-36.1,36.1-70.8,52.9-109.2,52.9L270.5,965.5L270.5,965.5z"/><path d="M729.6,940.5H270.5c-34,0-75.1-18.3-102.4-45.6c-27.3-27.3-45.6-68.4-45.6-102.4V431.8c0-3.2,2.6-5.9,5.9-5.9c3.2,0,5.9,2.6,5.9,5.9v360.7c0,31,17,68.8,42.2,94.1c25.2,25.2,63,42.2,94.1,42.2h459.1c28,0,54.4-13.4,83.2-42.2c25.8-25.8,31.2-65.4,31.2-94.1V431.8c0-3.2,2.6-5.9,5.9-5.9s5.9,2.6,5.9,5.9v360.7c0,30.9-6,73.7-34.7,102.4C789.9,926,760.9,940.5,729.6,940.5L729.6,940.5z"/><path d="M338,965.5V661.3c0-89.4,72.7-162.1,162.1-162.1c89.4,0,162.1,72.7,162.1,162.1v304.2H338L338,965.5z M600.3,903.7V661.3c0-55.3-45-100.3-100.3-100.3s-100.3,45-100.3,100.3v242.4H600.3L600.3,903.7z"/><path d="M637.1,940.5H363V661.3c0-75.6,61.5-137.1,137.1-137.1c75.6,0,137.1,61.5,137.1,137.1L637.1,940.5L637.1,940.5z M374.7,928.7h250.6V661.3c0-69.1-56.2-125.3-125.3-125.3c-69.1,0-125.3,56.2-125.3,125.3L374.7,928.7L374.7,928.7z"/></g>
</svg>