<svg xmlns="http://www.w3.org/2000/svg" viewBox="0 0 1000 1000"  xmlns:v="https://vecta.io/nano"><path d="M500 346.9H316.3v183.8H500V346.9zm61.3 306.2v61.3H255v-61.3h306.3zm0-367.5v306.3H255V285.6h306.3zm306.2 367.5v61.3h-245v-61.3h245zm0-122.5v61.3h-245v-61.3h245zm0-122.5v61.3h-245v-61.3h245zm0-122.5v61.3h-245v-61.3h245zM132.5 745V285.6H71.3V745c0 8.3 3 15.5 9.1 21.5s13.2 9.1 21.5 9.1 15.5-3 21.5-9.1 9.1-13.2 9.1-21.5zm796.3 0V224.4h-735V745c0 10.5-1.8 20.7-5.3 30.6h709.6c8.3 0 15.5-3 21.5-9.1s9.2-13.2 9.2-21.5zM990 163.1V745c0 25.5-8.9 47.2-26.8 65.1s-39.6 26.8-65.1 26.8H101.9c-25.5 0-47.2-8.9-65.1-26.8S10 770.5 10 745V224.4h122.5v-61.3H990z"/></svg>