<?xml version="1.0" encoding="utf-8"?>
<!-- Svg Vector Icons : http://www.onlinewebfonts.com/icon -->
<!DOCTYPE svg PUBLIC "-//W3C//DTD SVG 1.1//EN" "http://www.w3.org/Graphics/SVG/1.1/DTD/svg11.dtd">
<svg version="1.1" xmlns="http://www.w3.org/2000/svg" xmlns:xlink="http://www.w3.org/1999/xlink" x="0px" y="0px" viewBox="0 0 1000 1000" enable-background="new 0 0 1000 1000" xml:space="preserve">
<metadata> Svg Vector Icons : http://www.onlinewebfonts.com/icon </metadata>
<g><g transform="matrix(1 0 0 -1 0 1536)"><path d="M500,1189.1H316.3v-183.8H500V1189.1z M561.3,882.9v-61.3H255v61.3H561.3z M561.3,1250.4V944.1H255v306.3H561.3z M867.5,882.9v-61.3h-245v61.3H867.5z M867.5,1005.4v-61.3h-245v61.3H867.5z M867.5,1127.9v-61.3h-245v61.3H867.5z M867.5,1250.4v-61.3h-245v61.3H867.5z M132.5,791v459.4H71.3V791c0-8.3,3-15.5,9.1-21.5s13.2-9.1,21.5-9.1s15.5,3,21.5,9.1S132.5,782.7,132.5,791z M928.8,791v520.6h-735V791c0-10.5-1.8-20.7-5.3-30.6h709.6c8.3,0,15.5,3,21.5,9.1S928.8,782.7,928.8,791z M990,1372.9V791c0-25.5-8.9-47.2-26.8-65.1s-39.6-26.8-65.1-26.8H101.9c-25.5,0-47.2,8.9-65.1,26.8S10,765.5,10,791v520.6h122.5v61.3H990z"/></g></g>
</svg>